G04 #@! TF.GenerationSoftware,KiCad,Pcbnew,(5.1.5-0-10_14)*
G04 #@! TF.CreationDate,2020-10-10T14:38:44-04:00*
G04 #@! TF.ProjectId,AYOM - Power Supply Front Panel,41594f4d-202d-4205-906f-776572205375,rev?*
G04 #@! TF.SameCoordinates,Original*
G04 #@! TF.FileFunction,Legend,Top*
G04 #@! TF.FilePolarity,Positive*
%FSLAX46Y46*%
G04 Gerber Fmt 4.6, Leading zero omitted, Abs format (unit mm)*
G04 Created by KiCad (PCBNEW (5.1.5-0-10_14)) date 2020-10-10 14:38:44*
%MOMM*%
%LPD*%
G04 APERTURE LIST*
%ADD10C,0.100000*%
G04 APERTURE END LIST*
D10*
G36*
X128250031Y-46681682D02*
G01*
X125333264Y-46673568D01*
X125502598Y-46604071D01*
X125674048Y-46538807D01*
X125846909Y-46477776D01*
X126022239Y-46420626D01*
X126199334Y-46368062D01*
X126377839Y-46319732D01*
X126558462Y-46275282D01*
X126740495Y-46235771D01*
X126924292Y-46200493D01*
X127109500Y-46169448D01*
X127296120Y-46143343D01*
X127484150Y-46121823D01*
X127673945Y-46104890D01*
X127864798Y-46092896D01*
X128056709Y-46085487D01*
X128250031Y-46083018D01*
X128443353Y-46085487D01*
X128635617Y-46092896D01*
X128826117Y-46104890D01*
X129015912Y-46121823D01*
X129203942Y-46143343D01*
X129390562Y-46169448D01*
X129576123Y-46200493D01*
X129759567Y-46235771D01*
X129941600Y-46275282D01*
X130122223Y-46319732D01*
X130300728Y-46368062D01*
X130477823Y-46420626D01*
X130653153Y-46477776D01*
X130826367Y-46538807D01*
X130997464Y-46604071D01*
X131166798Y-46673568D01*
X131333661Y-46746593D01*
X131498761Y-46823851D01*
X131661392Y-46904637D01*
X131821906Y-46989657D01*
X131980303Y-47078204D01*
X132136231Y-47170279D01*
X132289336Y-47266235D01*
X132440325Y-47365718D01*
X132588845Y-47468376D01*
X132734542Y-47574915D01*
X132877417Y-47684629D01*
X133018175Y-47797871D01*
X133155406Y-47914287D01*
X133290167Y-48033879D01*
X133422106Y-48156646D01*
X133550870Y-48282235D01*
X133676811Y-48410998D01*
X133799225Y-48542937D01*
X133918817Y-48677698D01*
X134035234Y-48815282D01*
X134148475Y-48955335D01*
X134257836Y-49098562D01*
X134364375Y-49244260D01*
X134467386Y-49392779D01*
X134566870Y-49543768D01*
X134662825Y-49696873D01*
X134754900Y-49852801D01*
X134843448Y-50011198D01*
X134928467Y-50171712D01*
X135009253Y-50334343D01*
X135086511Y-50499443D01*
X135159889Y-50666659D01*
X135229034Y-50835640D01*
X135294298Y-51007090D01*
X135355328Y-51180304D01*
X135412478Y-51355282D01*
X135465042Y-51532376D01*
X135513373Y-51710882D01*
X135557823Y-51891504D01*
X135597334Y-52073537D01*
X135632611Y-52257334D01*
X135663656Y-52442543D01*
X135689761Y-52629162D01*
X135710928Y-52817546D01*
X135727861Y-53006987D01*
X135740209Y-53197840D01*
X135747617Y-53389751D01*
X135750086Y-53583073D01*
X135747617Y-53776396D01*
X135740209Y-53968307D01*
X135727861Y-54159159D01*
X135710928Y-54348954D01*
X135689761Y-54536984D01*
X135663656Y-54723604D01*
X135632611Y-54909165D01*
X135597334Y-55092609D01*
X135557823Y-55274643D01*
X135513373Y-55455265D01*
X135465042Y-55633770D01*
X135412478Y-55810865D01*
X135355328Y-55986195D01*
X135294298Y-56159057D01*
X135229034Y-56330507D01*
X135159889Y-56499840D01*
X135086511Y-56666704D01*
X135009253Y-56831804D01*
X134928467Y-56994434D01*
X134843448Y-57154948D01*
X134754900Y-57313345D01*
X134662825Y-57469273D01*
X134566870Y-57622732D01*
X134467386Y-57773368D01*
X134364375Y-57921887D01*
X134257836Y-58067584D01*
X134148475Y-58210812D01*
X134035234Y-58351218D01*
X133918817Y-58488801D01*
X133799225Y-58623562D01*
X133676811Y-58755148D01*
X133550870Y-58883912D01*
X133422106Y-59009854D01*
X133290167Y-59132268D01*
X133155406Y-59251859D01*
X133018175Y-59368276D01*
X132877417Y-59481518D01*
X132734542Y-59591232D01*
X132588845Y-59697770D01*
X132440325Y-59800782D01*
X132289336Y-59899912D01*
X132136231Y-59995868D01*
X131980303Y-60087943D01*
X131821906Y-60176490D01*
X131661392Y-60261509D01*
X131498761Y-60342648D01*
X131333661Y-60419554D01*
X131166798Y-60492931D01*
X130997464Y-60562076D01*
X130826367Y-60627340D01*
X130653153Y-60688723D01*
X130477823Y-60745520D01*
X130300728Y-60798084D01*
X130122223Y-60846768D01*
X129941600Y-60890865D01*
X129759567Y-60930729D01*
X129576123Y-60966006D01*
X129390562Y-60996698D01*
X129203942Y-61022804D01*
X129015912Y-61044323D01*
X128826117Y-61061256D01*
X128635617Y-61073251D01*
X128443353Y-61080659D01*
X128250031Y-61083129D01*
X128056709Y-61080659D01*
X127864798Y-61073251D01*
X127673945Y-61061256D01*
X127484150Y-61044323D01*
X127296120Y-61022804D01*
X127109500Y-60996698D01*
X126924292Y-60966006D01*
X126740495Y-60930729D01*
X126558462Y-60890865D01*
X126377839Y-60846768D01*
X126199334Y-60798084D01*
X126022239Y-60745520D01*
X125846909Y-60688723D01*
X125674048Y-60627340D01*
X125502598Y-60562076D01*
X125333264Y-60492931D01*
X125166401Y-60419554D01*
X125001301Y-60342648D01*
X124838670Y-60261509D01*
X124678156Y-60176490D01*
X124519759Y-60087943D01*
X124363831Y-59995868D01*
X124210373Y-59899912D01*
X124059737Y-59800782D01*
X123911217Y-59697770D01*
X123765520Y-59591232D01*
X123622292Y-59481518D01*
X123481887Y-59368276D01*
X123344656Y-59251859D01*
X123209895Y-59132268D01*
X123077956Y-59009854D01*
X122949192Y-58883912D01*
X122823251Y-58755148D01*
X122700837Y-58623562D01*
X122581245Y-58488801D01*
X122464828Y-58351218D01*
X122351587Y-58210812D01*
X122241873Y-58067584D01*
X122135334Y-57921887D01*
X122032676Y-57773368D01*
X121933192Y-57622732D01*
X121837237Y-57469273D01*
X121745162Y-57313345D01*
X121656614Y-57154948D01*
X121571595Y-56994434D01*
X121490809Y-56831804D01*
X121413551Y-56666704D01*
X121340526Y-56499840D01*
X121271028Y-56330507D01*
X121205764Y-56159057D01*
X121144734Y-55986195D01*
X121087584Y-55810865D01*
X121035020Y-55633770D01*
X120986689Y-55455265D01*
X120942592Y-55274643D01*
X120902728Y-55092609D01*
X120867451Y-54909165D01*
X120836406Y-54723604D01*
X120810301Y-54536984D01*
X120788781Y-54348954D01*
X120771848Y-54159159D01*
X120759853Y-53968307D01*
X120752445Y-53776396D01*
X120749976Y-53583073D01*
X120752445Y-53389751D01*
X120759853Y-53197840D01*
X120771848Y-53006987D01*
X120788781Y-52817546D01*
X120810301Y-52629162D01*
X120836406Y-52442543D01*
X120867451Y-52257334D01*
X120902728Y-52073537D01*
X120942592Y-51891504D01*
X120986689Y-51710882D01*
X121035020Y-51532376D01*
X121087584Y-51355282D01*
X121144734Y-51180304D01*
X121205764Y-51007090D01*
X121271028Y-50835640D01*
X121340526Y-50666659D01*
X121413551Y-50499443D01*
X121490809Y-50334343D01*
X121571595Y-50171712D01*
X121656614Y-50011198D01*
X121745162Y-49852801D01*
X121837237Y-49696873D01*
X121933192Y-49543768D01*
X122032676Y-49392779D01*
X122135334Y-49244260D01*
X122241873Y-49098562D01*
X122351587Y-48955335D01*
X122464828Y-48815282D01*
X122581245Y-48677698D01*
X122700837Y-48542937D01*
X122823251Y-48410998D01*
X122949192Y-48282235D01*
X123077956Y-48156646D01*
X123209895Y-48033879D01*
X123344656Y-47914287D01*
X123481887Y-47797871D01*
X123622292Y-47684629D01*
X123765520Y-47574915D01*
X123911217Y-47468376D01*
X124059737Y-47365718D01*
X124210373Y-47266235D01*
X124363831Y-47170279D01*
X124519759Y-47078204D01*
X124678156Y-46989657D01*
X124838670Y-46904637D01*
X125001301Y-46823851D01*
X125166401Y-46746593D01*
X125333264Y-46673568D01*
X128250031Y-46681682D01*
X128072231Y-46684151D01*
X127895489Y-46690854D01*
X127719806Y-46701790D01*
X127545181Y-46717665D01*
X127372320Y-46737421D01*
X127200517Y-46761410D01*
X127030125Y-46789632D01*
X126860792Y-46822087D01*
X126693223Y-46858776D01*
X126527417Y-46899346D01*
X126362670Y-46944148D01*
X126200039Y-46992479D01*
X126038820Y-47045043D01*
X125879364Y-47101135D01*
X125722026Y-47161107D01*
X125566451Y-47224960D01*
X125412639Y-47292340D01*
X125260592Y-47363248D01*
X125111014Y-47438037D01*
X124963201Y-47516001D01*
X124817503Y-47597493D01*
X124673923Y-47682160D01*
X124532812Y-47770354D01*
X124394170Y-47862076D01*
X124257645Y-47956621D01*
X124123237Y-48054693D01*
X123991651Y-48155587D01*
X123862534Y-48259657D01*
X123735887Y-48366548D01*
X123612062Y-48476615D01*
X123490706Y-48589504D01*
X123372173Y-48705215D01*
X123256462Y-48823748D01*
X123143573Y-48945104D01*
X123033506Y-49069282D01*
X122926614Y-49195576D01*
X122822545Y-49324693D01*
X122721298Y-49456632D01*
X122623578Y-49590687D01*
X122528681Y-49727212D01*
X122437312Y-49865854D01*
X122349117Y-50007318D01*
X122264098Y-50150546D01*
X122182606Y-50296243D01*
X122104642Y-50444057D01*
X122030206Y-50593634D01*
X121958945Y-50745682D01*
X121891917Y-50899493D01*
X121828064Y-51055068D01*
X121768092Y-51212759D01*
X121711648Y-51371862D01*
X121659437Y-51533082D01*
X121610753Y-51695712D01*
X121566303Y-51860459D01*
X121525381Y-52026265D01*
X121489045Y-52193834D01*
X121456589Y-52362815D01*
X121428367Y-52533559D01*
X121404026Y-52705362D01*
X121384270Y-52878576D01*
X121368748Y-53052848D01*
X121357459Y-53228532D01*
X121350756Y-53405273D01*
X121348639Y-53583073D01*
X121350756Y-53760873D01*
X121357459Y-53937615D01*
X121368748Y-54113298D01*
X121384270Y-54287923D01*
X121404026Y-54460784D01*
X121428367Y-54632940D01*
X121456589Y-54802979D01*
X121489045Y-54972312D01*
X121525381Y-55139882D01*
X121566303Y-55306040D01*
X121610753Y-55470434D01*
X121659437Y-55633065D01*
X121711648Y-55794284D01*
X121768092Y-55953740D01*
X121828064Y-56111079D01*
X121891917Y-56267007D01*
X121958945Y-56420818D01*
X122030206Y-56572512D01*
X122104642Y-56722443D01*
X122182606Y-56869904D01*
X122264098Y-57015601D01*
X122349117Y-57159182D01*
X122437312Y-57300293D01*
X122528681Y-57439287D01*
X122623578Y-57575459D01*
X122721298Y-57709868D01*
X122822545Y-57841454D01*
X122926614Y-57970570D01*
X123033506Y-58097218D01*
X123143573Y-58221043D01*
X123256462Y-58342398D01*
X123372173Y-58460932D01*
X123490706Y-58576643D01*
X123612062Y-58689532D01*
X123735887Y-58799598D01*
X123862534Y-58906490D01*
X123991651Y-59010559D01*
X124123237Y-59111807D01*
X124257645Y-59209526D01*
X124394170Y-59304423D01*
X124532812Y-59395793D01*
X124673923Y-59483987D01*
X124817503Y-59569007D01*
X124963201Y-59650498D01*
X125111014Y-59728462D01*
X125260592Y-59802898D01*
X125412639Y-59874159D01*
X125566451Y-59941187D01*
X125722026Y-60005040D01*
X125879364Y-60065012D01*
X126038820Y-60121457D01*
X126200039Y-60173668D01*
X126362670Y-60222351D01*
X126527417Y-60266801D01*
X126693223Y-60307370D01*
X126860792Y-60344059D01*
X127030125Y-60376515D01*
X127200517Y-60404737D01*
X127372320Y-60429079D01*
X127545181Y-60448834D01*
X127719806Y-60464356D01*
X127895489Y-60475645D01*
X128072231Y-60482348D01*
X128250031Y-60484465D01*
X128427831Y-60482348D01*
X128604573Y-60475645D01*
X128780256Y-60464356D01*
X128954528Y-60448834D01*
X129127742Y-60429079D01*
X129299898Y-60404737D01*
X129469937Y-60376515D01*
X129639270Y-60344059D01*
X129806839Y-60307370D01*
X129972645Y-60266801D01*
X130137392Y-60222351D01*
X130300023Y-60173668D01*
X130461242Y-60121457D01*
X130620698Y-60065012D01*
X130778036Y-60005040D01*
X130933611Y-59941187D01*
X131087423Y-59874159D01*
X131239470Y-59802898D01*
X131389048Y-59728462D01*
X131536861Y-59650498D01*
X131682206Y-59569007D01*
X131826139Y-59483987D01*
X131967250Y-59395793D01*
X132106245Y-59304423D01*
X132242417Y-59209526D01*
X132376473Y-59111807D01*
X132508059Y-59010559D01*
X132637528Y-58906490D01*
X132764175Y-58799598D01*
X132887648Y-58689532D01*
X133009003Y-58576643D01*
X133127889Y-58460932D01*
X133243600Y-58342398D01*
X133356489Y-58221043D01*
X133466556Y-58097218D01*
X133573448Y-57970570D01*
X133677517Y-57841454D01*
X133778764Y-57709868D01*
X133876484Y-57575459D01*
X133971381Y-57439287D01*
X134062750Y-57300293D01*
X134150945Y-57159182D01*
X134235964Y-57015601D01*
X134317103Y-56869904D01*
X134395420Y-56722443D01*
X134469856Y-56572512D01*
X134540764Y-56420818D01*
X134608145Y-56267007D01*
X134671998Y-56111079D01*
X134731970Y-55953740D01*
X134788061Y-55794284D01*
X134840978Y-55633065D01*
X134888956Y-55470434D01*
X134933759Y-55306040D01*
X134974681Y-55139882D01*
X135011017Y-54972312D01*
X135043473Y-54802979D01*
X135071695Y-54632940D01*
X135095684Y-54460784D01*
X135115792Y-54287923D01*
X135131314Y-54113298D01*
X135142603Y-53937615D01*
X135149306Y-53760873D01*
X135151423Y-53583073D01*
X135149306Y-53405273D01*
X135142603Y-53228532D01*
X135131314Y-53052848D01*
X135115792Y-52878576D01*
X135095684Y-52705362D01*
X135071695Y-52533559D01*
X135043473Y-52362815D01*
X135011017Y-52193834D01*
X134974681Y-52026265D01*
X134933759Y-51860459D01*
X134888956Y-51695712D01*
X134840978Y-51533082D01*
X134788061Y-51371862D01*
X134731970Y-51212759D01*
X134671998Y-51055068D01*
X134608145Y-50899493D01*
X134540764Y-50745682D01*
X134469856Y-50593634D01*
X134395420Y-50444057D01*
X134317103Y-50296243D01*
X134235964Y-50150546D01*
X134150945Y-50007318D01*
X134062750Y-49865854D01*
X133971381Y-49727212D01*
X133876484Y-49590687D01*
X133778764Y-49456632D01*
X133677517Y-49324693D01*
X133573448Y-49195576D01*
X133466556Y-49069282D01*
X133356489Y-48945104D01*
X133243600Y-48823748D01*
X133127889Y-48705215D01*
X133009003Y-48589504D01*
X132887648Y-48476615D01*
X132764175Y-48366548D01*
X132637528Y-48259657D01*
X132508059Y-48155587D01*
X132376473Y-48054693D01*
X132242417Y-47956621D01*
X132106245Y-47862076D01*
X131967250Y-47770354D01*
X131826139Y-47682160D01*
X131682206Y-47597493D01*
X131536861Y-47516001D01*
X131389048Y-47438037D01*
X131239470Y-47363248D01*
X131087423Y-47292340D01*
X130933611Y-47224960D01*
X130778036Y-47161107D01*
X130620698Y-47101135D01*
X130461242Y-47045043D01*
X130300023Y-46992479D01*
X130137392Y-46944148D01*
X129972645Y-46899346D01*
X129806839Y-46858776D01*
X129639270Y-46822087D01*
X129469937Y-46789632D01*
X129299898Y-46761410D01*
X129127742Y-46737421D01*
X128954528Y-46717665D01*
X128780256Y-46701790D01*
X128604573Y-46690854D01*
X128427831Y-46684151D01*
X128250031Y-46681682D01*
G37*
G36*
X130775603Y-52989313D02*
G01*
X130804884Y-52990019D01*
X130835928Y-52992841D01*
X130867678Y-52996721D01*
X130900134Y-53002366D01*
X130931884Y-53009421D01*
X130963634Y-53017535D01*
X130994678Y-53026707D01*
X131023959Y-53037291D01*
X131051828Y-53048227D01*
X131077228Y-53060221D01*
X131100159Y-53072921D01*
X131119914Y-53085974D01*
X131135789Y-53099732D01*
X131148136Y-53113844D01*
X131155545Y-53128307D01*
X131158014Y-53142419D01*
X131158014Y-53439105D01*
X131158014Y-53735791D01*
X131158014Y-54032830D01*
X131158014Y-54329163D01*
X131158014Y-54626202D01*
X131158014Y-54922535D01*
X131158014Y-55219574D01*
X131158014Y-55516260D01*
X131158014Y-55812946D01*
X131158014Y-56109632D01*
X131158014Y-56406318D01*
X131158014Y-56703005D01*
X131158014Y-56999691D01*
X131158014Y-57296377D01*
X131158014Y-57593063D01*
X131158014Y-57890102D01*
X131156250Y-57932082D01*
X131150959Y-57972299D01*
X131142492Y-58010399D01*
X131130497Y-58046735D01*
X131115681Y-58080602D01*
X131097689Y-58111999D01*
X131076875Y-58141280D01*
X131052886Y-58167385D01*
X131026428Y-58191374D01*
X130997500Y-58212188D01*
X130966103Y-58230180D01*
X130931884Y-58245349D01*
X130896253Y-58256991D01*
X130857800Y-58265810D01*
X130817584Y-58271102D01*
X130775603Y-58272866D01*
X130733270Y-58271102D01*
X130693053Y-58265810D01*
X130654953Y-58256991D01*
X130618970Y-58245349D01*
X130585103Y-58230180D01*
X130553353Y-58212188D01*
X130524425Y-58191374D01*
X130497967Y-58167385D01*
X130474331Y-58141280D01*
X130453517Y-58111999D01*
X130435172Y-58080602D01*
X130420356Y-58046735D01*
X130408361Y-58010399D01*
X130399895Y-57972299D01*
X130394603Y-57932082D01*
X130392839Y-57890102D01*
X130392839Y-57593063D01*
X130392839Y-57296377D01*
X130392839Y-56999691D01*
X130392839Y-56703005D01*
X130392839Y-56406318D01*
X130392839Y-56109632D01*
X130392839Y-55812946D01*
X130392839Y-55516260D01*
X130392839Y-55219574D01*
X130392839Y-54922535D01*
X130392839Y-54626202D01*
X130392839Y-54329163D01*
X130392839Y-54032830D01*
X130392839Y-53735791D01*
X130392839Y-53439105D01*
X130392839Y-53142419D01*
X130408009Y-53128307D01*
X130424942Y-53113844D01*
X130443639Y-53099732D01*
X130463395Y-53085974D01*
X130484561Y-53072921D01*
X130507139Y-53060221D01*
X130530775Y-53048227D01*
X130555470Y-53037291D01*
X130580870Y-53026707D01*
X130607328Y-53017535D01*
X130634492Y-53009421D01*
X130662009Y-53002366D01*
X130689878Y-52996721D01*
X130718100Y-52992841D01*
X130746675Y-52990019D01*
X130775603Y-52989313D01*
G37*
G36*
X131158014Y-50845271D02*
G01*
X131158014Y-50773304D01*
X131158014Y-50701690D01*
X131158014Y-50630077D01*
X131158014Y-50558110D01*
X131158014Y-50486143D01*
X131158014Y-50414529D01*
X131158014Y-50342915D01*
X131158014Y-50270949D01*
X131158014Y-50198982D01*
X131158014Y-50127368D01*
X131158014Y-50055754D01*
X131158014Y-49983788D01*
X131158014Y-49911821D01*
X131158014Y-49840207D01*
X131158014Y-49768593D01*
X131158014Y-49696627D01*
X131154486Y-49625718D01*
X131144256Y-49557279D01*
X131127322Y-49490957D01*
X131104392Y-49427457D01*
X131075464Y-49367132D01*
X131041245Y-49310335D01*
X131001733Y-49257418D01*
X130957283Y-49208382D01*
X130908247Y-49163932D01*
X130855683Y-49124774D01*
X130798533Y-49090202D01*
X130738561Y-49061274D01*
X130675061Y-49038343D01*
X130608739Y-49021410D01*
X130539947Y-49011179D01*
X130469392Y-49007652D01*
X130187170Y-49007652D01*
X129904947Y-49007652D01*
X129622725Y-49007652D01*
X129340503Y-49007652D01*
X129058281Y-49007652D01*
X128776058Y-49007652D01*
X128493836Y-49007652D01*
X128211614Y-49007652D01*
X127929745Y-49007652D01*
X127647170Y-49007652D01*
X127365300Y-49007652D01*
X127083078Y-49007652D01*
X126800503Y-49007652D01*
X126518634Y-49007652D01*
X126236411Y-49007652D01*
X125954189Y-49007652D01*
X125883281Y-49011179D01*
X125814842Y-49021410D01*
X125748520Y-49038343D01*
X125685020Y-49061274D01*
X125624695Y-49090202D01*
X125567897Y-49124774D01*
X125514981Y-49163932D01*
X125466297Y-49208382D01*
X125421847Y-49257418D01*
X125382336Y-49310335D01*
X125348117Y-49367132D01*
X125319189Y-49427457D01*
X125296259Y-49490957D01*
X125279325Y-49557279D01*
X125269095Y-49625718D01*
X125265214Y-49696627D01*
X125265214Y-49964738D01*
X125265214Y-50232849D01*
X125265214Y-50500607D01*
X125265214Y-50768718D01*
X125265214Y-51036477D01*
X125265214Y-51304588D01*
X125265214Y-51572699D01*
X125265214Y-51840810D01*
X125265214Y-52108921D01*
X125265214Y-52376679D01*
X125265214Y-52644790D01*
X125265214Y-52912549D01*
X125265214Y-53180660D01*
X125265214Y-53448771D01*
X125265214Y-53716882D01*
X125265214Y-53984640D01*
X125266978Y-54012510D01*
X125272270Y-54038615D01*
X125280384Y-54062957D01*
X125291672Y-54085182D01*
X125305431Y-54105996D01*
X125322011Y-54124693D01*
X125340356Y-54141626D01*
X125360817Y-54157149D01*
X125383395Y-54170554D01*
X125407384Y-54182196D01*
X125432784Y-54192074D01*
X125459242Y-54200188D01*
X125486406Y-54206185D01*
X125514275Y-54211124D01*
X125542850Y-54213593D01*
X125571425Y-54214299D01*
X125601059Y-54213593D01*
X125631750Y-54211124D01*
X125663500Y-54206538D01*
X125695956Y-54200188D01*
X125728059Y-54192074D01*
X125759809Y-54182196D01*
X125790853Y-54170554D01*
X125820134Y-54157149D01*
X125848003Y-54141626D01*
X125873403Y-54124693D01*
X125895981Y-54105996D01*
X125916089Y-54085182D01*
X125931964Y-54062957D01*
X125943959Y-54038615D01*
X125951367Y-54012510D01*
X125954189Y-53984640D01*
X125954189Y-53735932D01*
X125954189Y-53486871D01*
X125954189Y-53238163D01*
X125954189Y-52989454D01*
X125954189Y-52740393D01*
X125954189Y-52491685D01*
X125954189Y-52242624D01*
X125954189Y-51993915D01*
X125954189Y-51744854D01*
X125954189Y-51496146D01*
X125954189Y-51247438D01*
X125954189Y-50998377D01*
X125954189Y-50749668D01*
X125954189Y-50500607D01*
X125954189Y-50251899D01*
X125954189Y-50002838D01*
X125955953Y-49960857D01*
X125961245Y-49920640D01*
X125969711Y-49882540D01*
X125981706Y-49846204D01*
X125996522Y-49812338D01*
X126014514Y-49780940D01*
X126035681Y-49751660D01*
X126059317Y-49725554D01*
X126085775Y-49701565D01*
X126114703Y-49680752D01*
X126146100Y-49662407D01*
X126180320Y-49647590D01*
X126216303Y-49635596D01*
X126254403Y-49627129D01*
X126294620Y-49621838D01*
X126336600Y-49620074D01*
X126571197Y-49620074D01*
X126805442Y-49620074D01*
X127040039Y-49620074D01*
X127274284Y-49620074D01*
X127508528Y-49620074D01*
X127743125Y-49620074D01*
X127977370Y-49620074D01*
X128211614Y-49620074D01*
X128446211Y-49620074D01*
X128680808Y-49620074D01*
X128915053Y-49620074D01*
X129149297Y-49620074D01*
X129383542Y-49620074D01*
X129618139Y-49620074D01*
X129852383Y-49620074D01*
X130086628Y-49620074D01*
X130128961Y-49621838D01*
X130168825Y-49627129D01*
X130207278Y-49635596D01*
X130243261Y-49647590D01*
X130277128Y-49662407D01*
X130308878Y-49680752D01*
X130337806Y-49701565D01*
X130364264Y-49725554D01*
X130387900Y-49751660D01*
X130408714Y-49780940D01*
X130427058Y-49812338D01*
X130441875Y-49846204D01*
X130453870Y-49882540D01*
X130462336Y-49920640D01*
X130467628Y-49960857D01*
X130469392Y-50002838D01*
X130469392Y-50055754D01*
X130469392Y-50108318D01*
X130469392Y-50160882D01*
X130469392Y-50213446D01*
X130469392Y-50266010D01*
X130469392Y-50318927D01*
X130469392Y-50371490D01*
X130469392Y-50424054D01*
X130469392Y-50476971D01*
X130469392Y-50529182D01*
X130469392Y-50582099D01*
X130469392Y-50634663D01*
X130469392Y-50687227D01*
X130469392Y-50740143D01*
X130469392Y-50792707D01*
X130469392Y-50845271D01*
X130471156Y-50844565D01*
X130476095Y-50842096D01*
X130484914Y-50838215D01*
X130496908Y-50833277D01*
X130511725Y-50827632D01*
X130530070Y-50820929D01*
X130550531Y-50814227D01*
X130574520Y-50807171D01*
X130600978Y-50799763D01*
X130629906Y-50793060D01*
X130661656Y-50786357D01*
X130695170Y-50780713D01*
X130731506Y-50775774D01*
X130769606Y-50771893D01*
X130809822Y-50769424D01*
X130852156Y-50768718D01*
X130893078Y-50769424D01*
X130930825Y-50771893D01*
X130965397Y-50775774D01*
X130996795Y-50780713D01*
X131024664Y-50786357D01*
X131049711Y-50793060D01*
X131071936Y-50799763D01*
X131091339Y-50807171D01*
X131107567Y-50814227D01*
X131121678Y-50820929D01*
X131133320Y-50827632D01*
X131142492Y-50833277D01*
X131149547Y-50838215D01*
X131154133Y-50842096D01*
X131157308Y-50844565D01*
X131158014Y-50845271D01*
G37*
G36*
X125954224Y-56358623D02*
G01*
X125954224Y-56454226D01*
X125954224Y-56549829D01*
X125954224Y-56645784D01*
X125954224Y-56741387D01*
X125954224Y-56836990D01*
X125954224Y-56932945D01*
X125954224Y-57028548D01*
X125954224Y-57124151D01*
X125954224Y-57220106D01*
X125954224Y-57315709D01*
X125954224Y-57411312D01*
X125954224Y-57507267D01*
X125954224Y-57602870D01*
X125954224Y-57698473D01*
X125954224Y-57794429D01*
X125954224Y-57890031D01*
X125952460Y-57932012D01*
X125947168Y-57972581D01*
X125938702Y-58010681D01*
X125926707Y-58046665D01*
X125911538Y-58080531D01*
X125893546Y-58112281D01*
X125872732Y-58141209D01*
X125849096Y-58167667D01*
X125822285Y-58191304D01*
X125793357Y-58212117D01*
X125761960Y-58230462D01*
X125728093Y-58245279D01*
X125692110Y-58257273D01*
X125653657Y-58265740D01*
X125613793Y-58271031D01*
X125571460Y-58272795D01*
X125529480Y-58271031D01*
X125489263Y-58265740D01*
X125450810Y-58257273D01*
X125414827Y-58245279D01*
X125380960Y-58230462D01*
X125349563Y-58212117D01*
X125320635Y-58191304D01*
X125294177Y-58167667D01*
X125270541Y-58141209D01*
X125249374Y-58112281D01*
X125231382Y-58080531D01*
X125216566Y-58046665D01*
X125204571Y-58010681D01*
X125196105Y-57972581D01*
X125190460Y-57932012D01*
X125189049Y-57890031D01*
X125189049Y-57794429D01*
X125189049Y-57698473D01*
X125189049Y-57602870D01*
X125189049Y-57507267D01*
X125189049Y-57411312D01*
X125189049Y-57315709D01*
X125189049Y-57220106D01*
X125189049Y-57124151D01*
X125189049Y-57028548D01*
X125189049Y-56932945D01*
X125189049Y-56836990D01*
X125189049Y-56741387D01*
X125189049Y-56645784D01*
X125189049Y-56549829D01*
X125189049Y-56454226D01*
X125189049Y-56358623D01*
X125203160Y-56359329D01*
X125217977Y-56361798D01*
X125233146Y-56365679D01*
X125248668Y-56370617D01*
X125265249Y-56376262D01*
X125282888Y-56382612D01*
X125301938Y-56389667D01*
X125322752Y-56396723D01*
X125345330Y-56403779D01*
X125369671Y-56410834D01*
X125396482Y-56417537D01*
X125425410Y-56423181D01*
X125457513Y-56428120D01*
X125492085Y-56432001D01*
X125530185Y-56434117D01*
X125571460Y-56435176D01*
X125613793Y-56434117D01*
X125653657Y-56432001D01*
X125692110Y-56428120D01*
X125728093Y-56423181D01*
X125761960Y-56417537D01*
X125793357Y-56410834D01*
X125822285Y-56403779D01*
X125849096Y-56396723D01*
X125872732Y-56389667D01*
X125893546Y-56382612D01*
X125911538Y-56376262D01*
X125926707Y-56370617D01*
X125938702Y-56365679D01*
X125947168Y-56361798D01*
X125952460Y-56359329D01*
X125954224Y-56358623D01*
G37*
G36*
X114624307Y-135097492D02*
G01*
X114535407Y-135095375D01*
X114451094Y-135089025D01*
X114372424Y-135078442D01*
X114298694Y-135063273D01*
X114230607Y-135044575D01*
X114167813Y-135020939D01*
X114110663Y-134993070D01*
X114059157Y-134960614D01*
X114013296Y-134924278D01*
X113973432Y-134883356D01*
X113939213Y-134837848D01*
X113911344Y-134787753D01*
X113889119Y-134733425D01*
X113873244Y-134674511D01*
X113863719Y-134611011D01*
X113860544Y-134543278D01*
X113862307Y-134491420D01*
X113867952Y-134443442D01*
X113877124Y-134398286D01*
X113889471Y-134356306D01*
X113904994Y-134317853D01*
X113923338Y-134282223D01*
X113944505Y-134249414D01*
X113968141Y-134219428D01*
X113994246Y-134191911D01*
X114022469Y-134166159D01*
X114052455Y-134143581D01*
X114084557Y-134122767D01*
X114118071Y-134104070D01*
X114152996Y-134087489D01*
X114189332Y-134072320D01*
X114226374Y-134058914D01*
X114230960Y-134072320D01*
X114235194Y-134085725D01*
X114240132Y-134098778D01*
X114244366Y-134112184D01*
X114248952Y-134125589D01*
X114253538Y-134138642D01*
X114257771Y-134152048D01*
X114262357Y-134165453D01*
X114266944Y-134178859D01*
X114271530Y-134192617D01*
X114276116Y-134205670D01*
X114280349Y-134219075D01*
X114284935Y-134232481D01*
X114289521Y-134245534D01*
X114293755Y-134258939D01*
X114298341Y-134272345D01*
X114273294Y-134281164D01*
X114249305Y-134289984D01*
X114226021Y-134299509D01*
X114203796Y-134310445D01*
X114182630Y-134321734D01*
X114162521Y-134334081D01*
X114144177Y-134347839D01*
X114126891Y-134362656D01*
X114111721Y-134379236D01*
X114097963Y-134397228D01*
X114085969Y-134416631D01*
X114075738Y-134438503D01*
X114067977Y-134461786D01*
X114061980Y-134487539D01*
X114058452Y-134515409D01*
X114057394Y-134545395D01*
X114059157Y-134583142D01*
X114065155Y-134618420D01*
X114074680Y-134650523D01*
X114088085Y-134680509D01*
X114105371Y-134708025D01*
X114125832Y-134732367D01*
X114149821Y-134754239D01*
X114176985Y-134773995D01*
X114207324Y-134791281D01*
X114240838Y-134805745D01*
X114277174Y-134818092D01*
X114316332Y-134827970D01*
X114358313Y-134836084D01*
X114402763Y-134841023D01*
X114450035Y-134844550D01*
X114499424Y-134845609D01*
X114515299Y-134845609D01*
X114530821Y-134845609D01*
X114546344Y-134845609D01*
X114561866Y-134845609D01*
X114577741Y-134845609D01*
X114593263Y-134845609D01*
X114608785Y-134845609D01*
X114624307Y-134845609D01*
X114639830Y-134845609D01*
X114655352Y-134845609D01*
X114671227Y-134845609D01*
X114686749Y-134845609D01*
X114702271Y-134845609D01*
X114717794Y-134845609D01*
X114733669Y-134845609D01*
X114749191Y-134845609D01*
X114798580Y-134844550D01*
X114845852Y-134841023D01*
X114890302Y-134836084D01*
X114932635Y-134827970D01*
X114971441Y-134818092D01*
X115008130Y-134805745D01*
X115041291Y-134791281D01*
X115071982Y-134773995D01*
X115098794Y-134754239D01*
X115122782Y-134732367D01*
X115143243Y-134708025D01*
X115160530Y-134680509D01*
X115173935Y-134650523D01*
X115183460Y-134618420D01*
X115189457Y-134583142D01*
X115191221Y-134545395D01*
X115190163Y-134515409D01*
X115186635Y-134487539D01*
X115180638Y-134461786D01*
X115172877Y-134438503D01*
X115162646Y-134416631D01*
X115150652Y-134397228D01*
X115137246Y-134379236D01*
X115121724Y-134362656D01*
X115104438Y-134347839D01*
X115086094Y-134334081D01*
X115065985Y-134321734D01*
X115045171Y-134310445D01*
X115022594Y-134299509D01*
X114999310Y-134289984D01*
X114975321Y-134281164D01*
X114950274Y-134272345D01*
X114954860Y-134258939D01*
X114959094Y-134245534D01*
X114963680Y-134232481D01*
X114968266Y-134219075D01*
X114972499Y-134205670D01*
X114977085Y-134192617D01*
X114981671Y-134178859D01*
X114985905Y-134165453D01*
X114990491Y-134152048D01*
X114995077Y-134138642D01*
X114999310Y-134125589D01*
X115003896Y-134112184D01*
X115008482Y-134098778D01*
X115013069Y-134085725D01*
X115017302Y-134072320D01*
X115021888Y-134058914D01*
X115059282Y-134072320D01*
X115095266Y-134087489D01*
X115130543Y-134104070D01*
X115164057Y-134122767D01*
X115196160Y-134143581D01*
X115226146Y-134166159D01*
X115254368Y-134191911D01*
X115280474Y-134219428D01*
X115304110Y-134249414D01*
X115325277Y-134282223D01*
X115343621Y-134317853D01*
X115359143Y-134356306D01*
X115371491Y-134398286D01*
X115380663Y-134443442D01*
X115386307Y-134491420D01*
X115388071Y-134543278D01*
X115384896Y-134611011D01*
X115375371Y-134674511D01*
X115359496Y-134733425D01*
X115337271Y-134787753D01*
X115309402Y-134837848D01*
X115275182Y-134883356D01*
X115235318Y-134924278D01*
X115189457Y-134960614D01*
X115137952Y-134993070D01*
X115080449Y-135020939D01*
X115018007Y-135044575D01*
X114949569Y-135063273D01*
X114876191Y-135078442D01*
X114797521Y-135089025D01*
X114713207Y-135095375D01*
X114624307Y-135097492D01*
G37*
G36*
X115167973Y-136609886D02*
G01*
X115173618Y-136176322D01*
X115217362Y-136213364D01*
X115255815Y-136254286D01*
X115288270Y-136300147D01*
X115315082Y-136350242D01*
X115335895Y-136404569D01*
X115350712Y-136463836D01*
X115359532Y-136527336D01*
X115362707Y-136595069D01*
X115362707Y-136622586D01*
X115362707Y-136650103D01*
X115362707Y-136677267D01*
X115362707Y-136705136D01*
X115362707Y-136732653D01*
X115362707Y-136760169D01*
X115362707Y-136787686D01*
X115362707Y-136814850D01*
X115362707Y-136842367D01*
X115362707Y-136869883D01*
X115362707Y-136897400D01*
X115362707Y-136925269D01*
X115362707Y-136952786D01*
X115362707Y-136979950D01*
X115362707Y-137007467D01*
X115362707Y-137034983D01*
X115270279Y-137034983D01*
X115178204Y-137034983D01*
X115085776Y-137034983D01*
X114993348Y-137034983D01*
X114901273Y-137034983D01*
X114808845Y-137034983D01*
X114716770Y-137034983D01*
X114624343Y-137034983D01*
X114531915Y-137034983D01*
X114439840Y-137034983D01*
X114347412Y-137034983D01*
X114255337Y-137034983D01*
X114162909Y-137034983D01*
X114070834Y-137034983D01*
X113978407Y-137034983D01*
X113885979Y-137034983D01*
X113885979Y-137007467D01*
X113885979Y-136979950D01*
X113885979Y-136952786D01*
X113885979Y-136925269D01*
X113885979Y-136897400D01*
X113885979Y-136869883D01*
X113885979Y-136842367D01*
X113885979Y-136814850D01*
X113885979Y-136787686D01*
X113885979Y-136760169D01*
X113885979Y-136732653D01*
X113885979Y-136705136D01*
X113885979Y-136677267D01*
X113885979Y-136650103D01*
X113885979Y-136622586D01*
X113885979Y-136595069D01*
X113889154Y-136527336D01*
X113897973Y-136463836D01*
X113913143Y-136404569D01*
X113933957Y-136350242D01*
X113960768Y-136300147D01*
X113992870Y-136254286D01*
X114031323Y-136213364D01*
X114075068Y-136176322D01*
X114124457Y-136144219D01*
X114179843Y-136115997D01*
X114240520Y-136092361D01*
X114306490Y-136072958D01*
X114377751Y-136058142D01*
X114455009Y-136047205D01*
X114536854Y-136040855D01*
X114624343Y-136038739D01*
X114711832Y-136040855D01*
X114794029Y-136047205D01*
X114870934Y-136058142D01*
X114942195Y-136072958D01*
X115008518Y-136092361D01*
X115068843Y-136115997D01*
X115123876Y-136144219D01*
X115173618Y-136176322D01*
X115167973Y-136609886D01*
X115166209Y-136570728D01*
X115160918Y-136534039D01*
X115152098Y-136499819D01*
X115140104Y-136468775D01*
X115124582Y-136439847D01*
X115105532Y-136413389D01*
X115083659Y-136389753D01*
X115058259Y-136368233D01*
X115029684Y-136349536D01*
X114998287Y-136333308D01*
X114963715Y-136319550D01*
X114925968Y-136308614D01*
X114885751Y-136299442D01*
X114842359Y-136293444D01*
X114796145Y-136289917D01*
X114747109Y-136288505D01*
X114731587Y-136288505D01*
X114716418Y-136288505D01*
X114700895Y-136288505D01*
X114685726Y-136288505D01*
X114670204Y-136288505D01*
X114655034Y-136288505D01*
X114639512Y-136288505D01*
X114624343Y-136288505D01*
X114609173Y-136288505D01*
X114593651Y-136288505D01*
X114578482Y-136288505D01*
X114562959Y-136288505D01*
X114547790Y-136288505D01*
X114532268Y-136288505D01*
X114517098Y-136288505D01*
X114501576Y-136288505D01*
X114452893Y-136289917D01*
X114406326Y-136293444D01*
X114362934Y-136299442D01*
X114322718Y-136308614D01*
X114284970Y-136319550D01*
X114250398Y-136333308D01*
X114219001Y-136349536D01*
X114190426Y-136368233D01*
X114165026Y-136389753D01*
X114143154Y-136413389D01*
X114124457Y-136439847D01*
X114108934Y-136468775D01*
X114096587Y-136499819D01*
X114087768Y-136534039D01*
X114082476Y-136570728D01*
X114080712Y-136609886D01*
X114080712Y-136621880D01*
X114080712Y-136633522D01*
X114080712Y-136645869D01*
X114080712Y-136657511D01*
X114080712Y-136669505D01*
X114080712Y-136681147D01*
X114080712Y-136693142D01*
X114080712Y-136705489D01*
X114080712Y-136717130D01*
X114080712Y-136729125D01*
X114080712Y-136740767D01*
X114080712Y-136752761D01*
X114080712Y-136764403D01*
X114080712Y-136776750D01*
X114080712Y-136788392D01*
X114080712Y-136800386D01*
X114148798Y-136800386D01*
X114216532Y-136800386D01*
X114284618Y-136800386D01*
X114352351Y-136800386D01*
X114420437Y-136800386D01*
X114488523Y-136800386D01*
X114556609Y-136800386D01*
X114624343Y-136800386D01*
X114692429Y-136800386D01*
X114760162Y-136800386D01*
X114828248Y-136800386D01*
X114895982Y-136800386D01*
X114964068Y-136800386D01*
X115032154Y-136800386D01*
X115100240Y-136800386D01*
X115167973Y-136800386D01*
X115167973Y-136788392D01*
X115167973Y-136776750D01*
X115167973Y-136764403D01*
X115167973Y-136752761D01*
X115167973Y-136740767D01*
X115167973Y-136729125D01*
X115167973Y-136717130D01*
X115167973Y-136705489D01*
X115167973Y-136693142D01*
X115167973Y-136681147D01*
X115167973Y-136669505D01*
X115167973Y-136657511D01*
X115167973Y-136645869D01*
X115167973Y-136633522D01*
X115167973Y-136621880D01*
X115167973Y-136609886D01*
G37*
G36*
X115362601Y-138704150D02*
G01*
X115294515Y-138728492D01*
X115226076Y-138753186D01*
X115157990Y-138777528D01*
X115089903Y-138801869D01*
X115021465Y-138826564D01*
X114953026Y-138850906D01*
X114884940Y-138875247D01*
X114816853Y-138899942D01*
X114748415Y-138924283D01*
X114680328Y-138948625D01*
X114612242Y-138973319D01*
X114543803Y-138997661D01*
X114475717Y-139022003D01*
X114407278Y-139046697D01*
X114339192Y-139071039D01*
X114270754Y-139095381D01*
X114270754Y-139080564D01*
X114270754Y-139065394D01*
X114270754Y-139050578D01*
X114270754Y-139035408D01*
X114270754Y-139020592D01*
X114270754Y-139005775D01*
X114270754Y-138990606D01*
X114270754Y-138976142D01*
X114270754Y-138961325D01*
X114270754Y-138946156D01*
X114270754Y-138931339D01*
X114270754Y-138916522D01*
X114270754Y-138901353D01*
X114270754Y-138886536D01*
X114270754Y-138871367D01*
X114270754Y-138856550D01*
X114299681Y-138847025D01*
X114328609Y-138837853D01*
X114357184Y-138828328D01*
X114386112Y-138818803D01*
X114415040Y-138809631D01*
X114443967Y-138799753D01*
X114472895Y-138790581D01*
X114501470Y-138781408D01*
X114530398Y-138771883D01*
X114559326Y-138762711D01*
X114587901Y-138753186D01*
X114616828Y-138743661D01*
X114645756Y-138734489D01*
X114674331Y-138724964D01*
X114703259Y-138715439D01*
X114732187Y-138706267D01*
X114759703Y-138697094D01*
X114786867Y-138688628D01*
X114814384Y-138679808D01*
X114841548Y-138670636D01*
X114869065Y-138662169D01*
X114896228Y-138652997D01*
X114923745Y-138644178D01*
X114950909Y-138635358D01*
X114978426Y-138626539D01*
X115005942Y-138617719D01*
X115033106Y-138608547D01*
X115060623Y-138600081D01*
X115088140Y-138591261D01*
X115115303Y-138582089D01*
X115142467Y-138573622D01*
X115169984Y-138564450D01*
X115169984Y-138564097D01*
X115169984Y-138563039D01*
X115169984Y-138562333D01*
X115169984Y-138561628D01*
X115169984Y-138560569D01*
X115169984Y-138559864D01*
X115169984Y-138559158D01*
X115169984Y-138558100D01*
X115169984Y-138557394D01*
X115169984Y-138556689D01*
X115169984Y-138555983D01*
X115169984Y-138554925D01*
X115169984Y-138554219D01*
X115169984Y-138553514D01*
X115169984Y-138552456D01*
X115169984Y-138551750D01*
X115142467Y-138542931D01*
X115115303Y-138534464D01*
X115088140Y-138525292D01*
X115060623Y-138516472D01*
X115033106Y-138507653D01*
X115005942Y-138498833D01*
X114978426Y-138490014D01*
X114950909Y-138480842D01*
X114923745Y-138472375D01*
X114896228Y-138463203D01*
X114869065Y-138454383D01*
X114841548Y-138445917D01*
X114814384Y-138436744D01*
X114786867Y-138427925D01*
X114759703Y-138419106D01*
X114732187Y-138410286D01*
X114703259Y-138401114D01*
X114674331Y-138391236D01*
X114645756Y-138382064D01*
X114616828Y-138372892D01*
X114587901Y-138363367D01*
X114559326Y-138354194D01*
X114530398Y-138344317D01*
X114501470Y-138335144D01*
X114472895Y-138325972D01*
X114443967Y-138316094D01*
X114415040Y-138306922D01*
X114386112Y-138297750D01*
X114357184Y-138288225D01*
X114328609Y-138279053D01*
X114299681Y-138269528D01*
X114270754Y-138260003D01*
X114270754Y-138245539D01*
X114270754Y-138231075D01*
X114270754Y-138216611D01*
X114270754Y-138202500D01*
X114270754Y-138188036D01*
X114270754Y-138173572D01*
X114270754Y-138159108D01*
X114270754Y-138144644D01*
X114270754Y-138130181D01*
X114270754Y-138115717D01*
X114270754Y-138101253D01*
X114270754Y-138086789D01*
X114270754Y-138072678D01*
X114270754Y-138058214D01*
X114270754Y-138043750D01*
X114270754Y-138029286D01*
X114339192Y-138053628D01*
X114407278Y-138078322D01*
X114475717Y-138102664D01*
X114543803Y-138127006D01*
X114612242Y-138151700D01*
X114680328Y-138176042D01*
X114748415Y-138200383D01*
X114816853Y-138225078D01*
X114884940Y-138249419D01*
X114953026Y-138273761D01*
X115021465Y-138298456D01*
X115089903Y-138322797D01*
X115157990Y-138347139D01*
X115226076Y-138371833D01*
X115294515Y-138396175D01*
X115362601Y-138420517D01*
X115362601Y-138438156D01*
X115362601Y-138456147D01*
X115362601Y-138473786D01*
X115362601Y-138491425D01*
X115362601Y-138509064D01*
X115362601Y-138527056D01*
X115362601Y-138544694D01*
X115362601Y-138562333D01*
X115362601Y-138579972D01*
X115362601Y-138597611D01*
X115362601Y-138615603D01*
X115362601Y-138633242D01*
X115362601Y-138651233D01*
X115362601Y-138668519D01*
X115362601Y-138686511D01*
X115362601Y-138704150D01*
G37*
G36*
X115362601Y-140032570D02*
G01*
X115362601Y-140096423D01*
X115362601Y-140159923D01*
X115362601Y-140223776D01*
X115362601Y-140287628D01*
X115362601Y-140351128D01*
X115362601Y-140414981D01*
X115362601Y-140478834D01*
X115362601Y-140542334D01*
X115362601Y-140606187D01*
X115362601Y-140670039D01*
X115362601Y-140733539D01*
X115362601Y-140797392D01*
X115362601Y-140861245D01*
X115362601Y-140924745D01*
X115362601Y-140988598D01*
X115362601Y-141052451D01*
X115348490Y-141052451D01*
X115334378Y-141052451D01*
X115320267Y-141052451D01*
X115306156Y-141052451D01*
X115292045Y-141052451D01*
X115277581Y-141052451D01*
X115263470Y-141052451D01*
X115249359Y-141052451D01*
X115235248Y-141052451D01*
X115221137Y-141052451D01*
X115207026Y-141052451D01*
X115192915Y-141052451D01*
X115178803Y-141052451D01*
X115164340Y-141052451D01*
X115150228Y-141052451D01*
X115136117Y-141052451D01*
X115110012Y-141022112D01*
X115083553Y-140992126D01*
X115057448Y-140962139D01*
X115030990Y-140931801D01*
X115004531Y-140901462D01*
X114978426Y-140871476D01*
X114951967Y-140841489D01*
X114925862Y-140811151D01*
X114899403Y-140780812D01*
X114873298Y-140750826D01*
X114846840Y-140720839D01*
X114820381Y-140690501D01*
X114794276Y-140660162D01*
X114767817Y-140630176D01*
X114741712Y-140600189D01*
X114715253Y-140569851D01*
X114690559Y-140542334D01*
X114665865Y-140516581D01*
X114641876Y-140492239D01*
X114617534Y-140469309D01*
X114593545Y-140448142D01*
X114569909Y-140428387D01*
X114546273Y-140410395D01*
X114522637Y-140394167D01*
X114499001Y-140379351D01*
X114475365Y-140367003D01*
X114451728Y-140356067D01*
X114427740Y-140347248D01*
X114403751Y-140340192D01*
X114379409Y-140334901D01*
X114355067Y-140332078D01*
X114330020Y-140331020D01*
X114328609Y-140331020D01*
X114327198Y-140331020D01*
X114325787Y-140331020D01*
X114324376Y-140331020D01*
X114322965Y-140331020D01*
X114321554Y-140331020D01*
X114320142Y-140331020D01*
X114318731Y-140331020D01*
X114317320Y-140331020D01*
X114315556Y-140331020D01*
X114314145Y-140331020D01*
X114312734Y-140331020D01*
X114311323Y-140331020D01*
X114309912Y-140331020D01*
X114308501Y-140331020D01*
X114307090Y-140331020D01*
X114278867Y-140332078D01*
X114252409Y-140334901D01*
X114227362Y-140340192D01*
X114204079Y-140347601D01*
X114182559Y-140356420D01*
X114162804Y-140367356D01*
X114144812Y-140380409D01*
X114128584Y-140395226D01*
X114114120Y-140411806D01*
X114101420Y-140430503D01*
X114090837Y-140450964D01*
X114082017Y-140472837D01*
X114074962Y-140496473D01*
X114070023Y-140522578D01*
X114066848Y-140549742D01*
X114065790Y-140578670D01*
X114067201Y-140608303D01*
X114070376Y-140635820D01*
X114075667Y-140661926D01*
X114083429Y-140686267D01*
X114092601Y-140708845D01*
X114103890Y-140730012D01*
X114116590Y-140749062D01*
X114131406Y-140767406D01*
X114147634Y-140783987D01*
X114165273Y-140799156D01*
X114184676Y-140812914D01*
X114205137Y-140825262D01*
X114226656Y-140836551D01*
X114249587Y-140847134D01*
X114273576Y-140856306D01*
X114298270Y-140864067D01*
X114293684Y-140877473D01*
X114288745Y-140890173D01*
X114283806Y-140903226D01*
X114278867Y-140915926D01*
X114273929Y-140928978D01*
X114268990Y-140941678D01*
X114264404Y-140954731D01*
X114259465Y-140967431D01*
X114254526Y-140980837D01*
X114249587Y-140993889D01*
X114244648Y-141006589D01*
X114239709Y-141019642D01*
X114234770Y-141032342D01*
X114230184Y-141045395D01*
X114225245Y-141058095D01*
X114220306Y-141071148D01*
X114185734Y-141059153D01*
X114151162Y-141044689D01*
X114118001Y-141027756D01*
X114085545Y-141009059D01*
X114054501Y-140987187D01*
X114024867Y-140963198D01*
X113996645Y-140936387D01*
X113970540Y-140907106D01*
X113946904Y-140874651D01*
X113925384Y-140839020D01*
X113906687Y-140800920D01*
X113890812Y-140759645D01*
X113877759Y-140715195D01*
X113868587Y-140667570D01*
X113862590Y-140616064D01*
X113860473Y-140561737D01*
X113862590Y-140505998D01*
X113868940Y-140452728D01*
X113878817Y-140403339D01*
X113892929Y-140357126D01*
X113910567Y-140314439D01*
X113931381Y-140274928D01*
X113955723Y-140238945D01*
X113982887Y-140206489D01*
X114013226Y-140177562D01*
X114046387Y-140152514D01*
X114082017Y-140130995D01*
X114120470Y-140113356D01*
X114160687Y-140099245D01*
X114203373Y-140089367D01*
X114247823Y-140083723D01*
X114294390Y-140081606D01*
X114337429Y-140083370D01*
X114379056Y-140088309D01*
X114419273Y-140096776D01*
X114458078Y-140108417D01*
X114495473Y-140122528D01*
X114531809Y-140140167D01*
X114567087Y-140159923D01*
X114601659Y-140182501D01*
X114635173Y-140207548D01*
X114668687Y-140234712D01*
X114701142Y-140263992D01*
X114733245Y-140295389D01*
X114765348Y-140328903D01*
X114797451Y-140363828D01*
X114829201Y-140400517D01*
X114861303Y-140438617D01*
X114880001Y-140461195D01*
X114899051Y-140483420D01*
X114917748Y-140505998D01*
X114936445Y-140527870D01*
X114955142Y-140550448D01*
X114973840Y-140572673D01*
X114992890Y-140595251D01*
X115011587Y-140617476D01*
X115030284Y-140640053D01*
X115048981Y-140662278D01*
X115068031Y-140684856D01*
X115086728Y-140707081D01*
X115105426Y-140729306D01*
X115124123Y-140751531D01*
X115142820Y-140774109D01*
X115161870Y-140796334D01*
X115161870Y-140748356D01*
X115161870Y-140701084D01*
X115161870Y-140653106D01*
X115161870Y-140605481D01*
X115161870Y-140557503D01*
X115161870Y-140510231D01*
X115161870Y-140462253D01*
X115161870Y-140414276D01*
X115161870Y-140366651D01*
X115161870Y-140319026D01*
X115161870Y-140271401D01*
X115161870Y-140223423D01*
X115161870Y-140175798D01*
X115161870Y-140128173D01*
X115161870Y-140080548D01*
X115161870Y-140032570D01*
X115174217Y-140032570D01*
X115186917Y-140032570D01*
X115199617Y-140032570D01*
X115211965Y-140032570D01*
X115224665Y-140032570D01*
X115237012Y-140032570D01*
X115249712Y-140032570D01*
X115262059Y-140032570D01*
X115274759Y-140032570D01*
X115287459Y-140032570D01*
X115299806Y-140032570D01*
X115312506Y-140032570D01*
X115325206Y-140032570D01*
X115337553Y-140032570D01*
X115349901Y-140032570D01*
X115362601Y-140032570D01*
G37*
G36*
X115362601Y-142988140D02*
G01*
X115350253Y-142988140D01*
X115337906Y-142988140D01*
X115325912Y-142988140D01*
X115313565Y-142988140D01*
X115301217Y-142988140D01*
X115288870Y-142988140D01*
X115276523Y-142988140D01*
X115264176Y-142988140D01*
X115252181Y-142988140D01*
X115239481Y-142988140D01*
X115227487Y-142988140D01*
X115215140Y-142988140D01*
X115202792Y-142988140D01*
X115190445Y-142988140D01*
X115178451Y-142988140D01*
X115165751Y-142988140D01*
X115165751Y-142962387D01*
X115165751Y-142936282D01*
X115165751Y-142910176D01*
X115165751Y-142884423D01*
X115165751Y-142858671D01*
X115165751Y-142832918D01*
X115165751Y-142806459D01*
X115165751Y-142780707D01*
X115165751Y-142754954D01*
X115165751Y-142728848D01*
X115165751Y-142702743D01*
X115165751Y-142676990D01*
X115165751Y-142651237D01*
X115165751Y-142625484D01*
X115165751Y-142599026D01*
X115165751Y-142573273D01*
X115096959Y-142573273D01*
X115027462Y-142573273D01*
X114958317Y-142573273D01*
X114889173Y-142573273D01*
X114820028Y-142573273D01*
X114750884Y-142573273D01*
X114681740Y-142573273D01*
X114612595Y-142573273D01*
X114543451Y-142573273D01*
X114474306Y-142573273D01*
X114405162Y-142573273D01*
X114336017Y-142573273D01*
X114266873Y-142573273D01*
X114197729Y-142573273D01*
X114128584Y-142573273D01*
X114059440Y-142573273D01*
X114059440Y-142574332D01*
X114059440Y-142575390D01*
X114059440Y-142576448D01*
X114059440Y-142577507D01*
X114059440Y-142578565D01*
X114059440Y-142579623D01*
X114059440Y-142580682D01*
X114059440Y-142582093D01*
X114059440Y-142583151D01*
X114059440Y-142583857D01*
X114059440Y-142584915D01*
X114059440Y-142585973D01*
X114059440Y-142587032D01*
X114059440Y-142588090D01*
X114059440Y-142589148D01*
X114059440Y-142590207D01*
X114082370Y-142611726D01*
X114105301Y-142632893D01*
X114127879Y-142654765D01*
X114150809Y-142675932D01*
X114173740Y-142697451D01*
X114196670Y-142718618D01*
X114219601Y-142740137D01*
X114242531Y-142761657D01*
X114265462Y-142783176D01*
X114288392Y-142804343D01*
X114311323Y-142825862D01*
X114333901Y-142847382D01*
X114356831Y-142868548D01*
X114379762Y-142890421D01*
X114402692Y-142911587D01*
X114425623Y-142933107D01*
X114417509Y-142942279D01*
X114409042Y-142951451D01*
X114400928Y-142960271D01*
X114392815Y-142969443D01*
X114384701Y-142978968D01*
X114376234Y-142987787D01*
X114368120Y-142996607D01*
X114360006Y-143006132D01*
X114351892Y-143015304D01*
X114343426Y-143024476D01*
X114335312Y-143033296D01*
X114327198Y-143042468D01*
X114319084Y-143051993D01*
X114310617Y-143060812D01*
X114302504Y-143069632D01*
X114294390Y-143079157D01*
X114268637Y-143055521D01*
X114243237Y-143031884D01*
X114217837Y-143008601D01*
X114192437Y-142984965D01*
X114166684Y-142961329D01*
X114141284Y-142937693D01*
X114115531Y-142914409D01*
X114090131Y-142890773D01*
X114064731Y-142867137D01*
X114039331Y-142843854D01*
X114013579Y-142820218D01*
X113988179Y-142796582D01*
X113962779Y-142773298D01*
X113937026Y-142749662D01*
X113911626Y-142726026D01*
X113885873Y-142702390D01*
X113885873Y-142679812D01*
X113885873Y-142656882D01*
X113885873Y-142633951D01*
X113885873Y-142611021D01*
X113885873Y-142588090D01*
X113885873Y-142565159D01*
X113885873Y-142542229D01*
X113885873Y-142519298D01*
X113885873Y-142496368D01*
X113885873Y-142473790D01*
X113885873Y-142450859D01*
X113885873Y-142427929D01*
X113885873Y-142404998D01*
X113885873Y-142382068D01*
X113885873Y-142359137D01*
X113885873Y-142336207D01*
X113966306Y-142336207D01*
X114046034Y-142336207D01*
X114126115Y-142336207D01*
X114206195Y-142336207D01*
X114285923Y-142336207D01*
X114366003Y-142336207D01*
X114446084Y-142336207D01*
X114525812Y-142336207D01*
X114605892Y-142336207D01*
X114685973Y-142336207D01*
X114766053Y-142336207D01*
X114846134Y-142336207D01*
X114925862Y-142336207D01*
X115005942Y-142336207D01*
X115086023Y-142336207D01*
X115165751Y-142336207D01*
X115165751Y-142313982D01*
X115165751Y-142291404D01*
X115165751Y-142269532D01*
X115165751Y-142246954D01*
X115165751Y-142224729D01*
X115165751Y-142202151D01*
X115165751Y-142179926D01*
X115165751Y-142157701D01*
X115165751Y-142135476D01*
X115165751Y-142113251D01*
X115165751Y-142090673D01*
X115165751Y-142068448D01*
X115165751Y-142045871D01*
X115165751Y-142023998D01*
X115165751Y-142001421D01*
X115165751Y-141979196D01*
X115178451Y-141979196D01*
X115190445Y-141979196D01*
X115202792Y-141979196D01*
X115215140Y-141979196D01*
X115227487Y-141979196D01*
X115239481Y-141979196D01*
X115252181Y-141979196D01*
X115264176Y-141979196D01*
X115276523Y-141979196D01*
X115288870Y-141979196D01*
X115301217Y-141979196D01*
X115313565Y-141979196D01*
X115325912Y-141979196D01*
X115337906Y-141979196D01*
X115350253Y-141979196D01*
X115362601Y-141979196D01*
X115362601Y-142041990D01*
X115362601Y-142105137D01*
X115362601Y-142168284D01*
X115362601Y-142231079D01*
X115362601Y-142294226D01*
X115362601Y-142357373D01*
X115362601Y-142420521D01*
X115362601Y-142483315D01*
X115362601Y-142546815D01*
X115362601Y-142609962D01*
X115362601Y-142672757D01*
X115362601Y-142735904D01*
X115362601Y-142799051D01*
X115362601Y-142862198D01*
X115362601Y-142924993D01*
X115362601Y-142988140D01*
G37*
G36*
X115362601Y-145031400D02*
G01*
X115350959Y-145031400D01*
X115338965Y-145031400D01*
X115327323Y-145031400D01*
X115315681Y-145031400D01*
X115303687Y-145031400D01*
X115292045Y-145031400D01*
X115280403Y-145031400D01*
X115268409Y-145031400D01*
X115256767Y-145031400D01*
X115244773Y-145031400D01*
X115233131Y-145031400D01*
X115221490Y-145031400D01*
X115209495Y-145031400D01*
X115197853Y-145031400D01*
X115186212Y-145031400D01*
X115174217Y-145031400D01*
X115015820Y-144631703D01*
X114991126Y-144631703D01*
X114966431Y-144631703D01*
X114942090Y-144631703D01*
X114917395Y-144631703D01*
X114892701Y-144631703D01*
X114868359Y-144631703D01*
X114843665Y-144631703D01*
X114818970Y-144631703D01*
X114794276Y-144631703D01*
X114769934Y-144631703D01*
X114745240Y-144631703D01*
X114720545Y-144631703D01*
X114695851Y-144631703D01*
X114671509Y-144631703D01*
X114646815Y-144631703D01*
X114622120Y-144631703D01*
X114622120Y-144656750D01*
X114622120Y-144681797D01*
X114622120Y-144706844D01*
X114622120Y-144731539D01*
X114622120Y-144756586D01*
X114622120Y-144781633D01*
X114622120Y-144806681D01*
X114622120Y-144831728D01*
X114622120Y-144856422D01*
X114622120Y-144881469D01*
X114622120Y-144906517D01*
X114622120Y-144931564D01*
X114622120Y-144956258D01*
X114622120Y-144981306D01*
X114622120Y-145006706D01*
X114622120Y-145031400D01*
X114610478Y-145031400D01*
X114598484Y-145031400D01*
X114586842Y-145031400D01*
X114575201Y-145031400D01*
X114563206Y-145031400D01*
X114551565Y-145031400D01*
X114539923Y-145031400D01*
X114527928Y-145031400D01*
X114516287Y-145031400D01*
X114504292Y-145031400D01*
X114492651Y-145031400D01*
X114481009Y-145031400D01*
X114469015Y-145031400D01*
X114457373Y-145031400D01*
X114445731Y-145031400D01*
X114433737Y-145031400D01*
X114433737Y-145006706D01*
X114433737Y-144981306D01*
X114433737Y-144956258D01*
X114433737Y-144931564D01*
X114433737Y-144906517D01*
X114433737Y-144881469D01*
X114433737Y-144856422D01*
X114433737Y-144831728D01*
X114433737Y-144806681D01*
X114433737Y-144781633D01*
X114433737Y-144756586D01*
X114433737Y-144731539D01*
X114433737Y-144706844D01*
X114433737Y-144681797D01*
X114433737Y-144656750D01*
X114433737Y-144631703D01*
X114409042Y-144631703D01*
X114384701Y-144631703D01*
X114360006Y-144631703D01*
X114335312Y-144631703D01*
X114310970Y-144631703D01*
X114286276Y-144631703D01*
X114261581Y-144631703D01*
X114237240Y-144631703D01*
X114212545Y-144631703D01*
X114187851Y-144631703D01*
X114163509Y-144631703D01*
X114138815Y-144631703D01*
X114114120Y-144631703D01*
X114089779Y-144631703D01*
X114065084Y-144631703D01*
X114040390Y-144631703D01*
X114040390Y-144618650D01*
X114040390Y-144605950D01*
X114040390Y-144592897D01*
X114040390Y-144580197D01*
X114040390Y-144567144D01*
X114040390Y-144553739D01*
X114040390Y-144541039D01*
X114040390Y-144527986D01*
X114040390Y-144514933D01*
X114040390Y-144502233D01*
X114040390Y-144489181D01*
X114040390Y-144476128D01*
X114040390Y-144463428D01*
X114040390Y-144450375D01*
X114040390Y-144437322D01*
X114040390Y-144424269D01*
X114065084Y-144424269D01*
X114089779Y-144424269D01*
X114114120Y-144424269D01*
X114138815Y-144424269D01*
X114163509Y-144424269D01*
X114187851Y-144424269D01*
X114212545Y-144424269D01*
X114237240Y-144424269D01*
X114261581Y-144424269D01*
X114286276Y-144424269D01*
X114310970Y-144424269D01*
X114335312Y-144424269D01*
X114360006Y-144424269D01*
X114384701Y-144424269D01*
X114409042Y-144424269D01*
X114433737Y-144424269D01*
X114433737Y-144399222D01*
X114433737Y-144374528D01*
X114433737Y-144349128D01*
X114433737Y-144324433D01*
X114433737Y-144299386D01*
X114433737Y-144274339D01*
X114433737Y-144249292D01*
X114433737Y-144224597D01*
X114433737Y-144199550D01*
X114433737Y-144174150D01*
X114433737Y-144149456D01*
X114433737Y-144124408D01*
X114433737Y-144099361D01*
X114433737Y-144074314D01*
X114433737Y-144049619D01*
X114433737Y-144024572D01*
X114445731Y-144024572D01*
X114457373Y-144024572D01*
X114469015Y-144024572D01*
X114481009Y-144024572D01*
X114492651Y-144024572D01*
X114504292Y-144024572D01*
X114516287Y-144024572D01*
X114527928Y-144024572D01*
X114539923Y-144024572D01*
X114551565Y-144024572D01*
X114563206Y-144024572D01*
X114575201Y-144024572D01*
X114586842Y-144024572D01*
X114598484Y-144024572D01*
X114610478Y-144024572D01*
X114622120Y-144024572D01*
X114622120Y-144049619D01*
X114622120Y-144074314D01*
X114622120Y-144099361D01*
X114622120Y-144124408D01*
X114622120Y-144149456D01*
X114622120Y-144174150D01*
X114622120Y-144199550D01*
X114622120Y-144224597D01*
X114622120Y-144249292D01*
X114622120Y-144274339D01*
X114622120Y-144299386D01*
X114622120Y-144324433D01*
X114622120Y-144349128D01*
X114622120Y-144374528D01*
X114622120Y-144399222D01*
X114622120Y-144424269D01*
X114646815Y-144424269D01*
X114671509Y-144424269D01*
X114695851Y-144424269D01*
X114720545Y-144424269D01*
X114745240Y-144424269D01*
X114769934Y-144424269D01*
X114794276Y-144424269D01*
X114818970Y-144424269D01*
X114843665Y-144424269D01*
X114868359Y-144424269D01*
X114892701Y-144424269D01*
X114917395Y-144424269D01*
X114942090Y-144424269D01*
X114966431Y-144424269D01*
X114991126Y-144424269D01*
X115015820Y-144424269D01*
X115015820Y-144437322D01*
X115015820Y-144450375D01*
X115015820Y-144463428D01*
X115015820Y-144476128D01*
X115015820Y-144489181D01*
X115015820Y-144502233D01*
X115015820Y-144514933D01*
X115015820Y-144527986D01*
X115015820Y-144541039D01*
X115015820Y-144553739D01*
X115015820Y-144567144D01*
X115015820Y-144580197D01*
X115015820Y-144592897D01*
X115015820Y-144605950D01*
X115015820Y-144618650D01*
X115015820Y-144631703D01*
X115174217Y-145031400D01*
X115174217Y-144968253D01*
X115174217Y-144905811D01*
X115174217Y-144842664D01*
X115174217Y-144779517D01*
X115174217Y-144716722D01*
X115174217Y-144653928D01*
X115174217Y-144590781D01*
X115174217Y-144527633D01*
X115174217Y-144465192D01*
X115174217Y-144402044D01*
X115174217Y-144338897D01*
X115174217Y-144276103D01*
X115174217Y-144213308D01*
X115174217Y-144150161D01*
X115174217Y-144087367D01*
X115174217Y-144024572D01*
X115186212Y-144024572D01*
X115197853Y-144024572D01*
X115209495Y-144024572D01*
X115221490Y-144024572D01*
X115233131Y-144024572D01*
X115244773Y-144024572D01*
X115256767Y-144024572D01*
X115268409Y-144024572D01*
X115280403Y-144024572D01*
X115292045Y-144024572D01*
X115303687Y-144024572D01*
X115315681Y-144024572D01*
X115327323Y-144024572D01*
X115338965Y-144024572D01*
X115350959Y-144024572D01*
X115362601Y-144024572D01*
X115362601Y-144087367D01*
X115362601Y-144150161D01*
X115362601Y-144213308D01*
X115362601Y-144276103D01*
X115362601Y-144338897D01*
X115362601Y-144402044D01*
X115362601Y-144465192D01*
X115362601Y-144527633D01*
X115362601Y-144590781D01*
X115362601Y-144653928D01*
X115362601Y-144716722D01*
X115362601Y-144779517D01*
X115362601Y-144842664D01*
X115362601Y-144905811D01*
X115362601Y-144968253D01*
X115362601Y-145031400D01*
G37*
G36*
X128256910Y-109868026D02*
G01*
X127384138Y-109858854D01*
X127471979Y-109938229D01*
X127566877Y-110009490D01*
X127668829Y-110071579D01*
X127776779Y-110123790D01*
X127890021Y-110165065D01*
X128008202Y-110195757D01*
X128130968Y-110214101D01*
X128256910Y-110220804D01*
X128382852Y-110214101D01*
X128505618Y-110195757D01*
X128623799Y-110165065D01*
X128737041Y-110123790D01*
X128844991Y-110071579D01*
X128946591Y-110009490D01*
X129041841Y-109938229D01*
X129129682Y-109858854D01*
X129209057Y-109771012D01*
X129280318Y-109675762D01*
X129342407Y-109574162D01*
X129394618Y-109466212D01*
X129435893Y-109352618D01*
X129466585Y-109234437D01*
X129484929Y-109112023D01*
X129491632Y-108986082D01*
X129484929Y-108860140D01*
X129466585Y-108737373D01*
X129435893Y-108619193D01*
X129394618Y-108505951D01*
X129342407Y-108398001D01*
X129280318Y-108296048D01*
X129209057Y-108200798D01*
X129129682Y-108113309D01*
X129041841Y-108033582D01*
X128946591Y-107962673D01*
X128844991Y-107900584D01*
X128737041Y-107848373D01*
X128623799Y-107806745D01*
X128505618Y-107776407D01*
X128382852Y-107757709D01*
X128256910Y-107751359D01*
X128130968Y-107757709D01*
X128008202Y-107776407D01*
X127890021Y-107806745D01*
X127776779Y-107848373D01*
X127668829Y-107900584D01*
X127566877Y-107962673D01*
X127471979Y-108033582D01*
X127384138Y-108113309D01*
X127304410Y-108200798D01*
X127233149Y-108296048D01*
X127171413Y-108398001D01*
X127119202Y-108505951D01*
X127077574Y-108619193D01*
X127047235Y-108737373D01*
X127028538Y-108860140D01*
X127022188Y-108986082D01*
X127028538Y-109112023D01*
X127047235Y-109234437D01*
X127077574Y-109352618D01*
X127119202Y-109466212D01*
X127171413Y-109574162D01*
X127233149Y-109675762D01*
X127304410Y-109771012D01*
X127384138Y-109858854D01*
X128256910Y-109868026D01*
X128166599Y-109863440D01*
X128079110Y-109850034D01*
X127994796Y-109828515D01*
X127913657Y-109798529D01*
X127836752Y-109761487D01*
X127764079Y-109717037D01*
X127695993Y-109666590D01*
X127633199Y-109609793D01*
X127576402Y-109546998D01*
X127525602Y-109478912D01*
X127481504Y-109406240D01*
X127444110Y-109329334D01*
X127414477Y-109248195D01*
X127392957Y-109163529D01*
X127379552Y-109076040D01*
X127374966Y-108986082D01*
X127379552Y-108896476D01*
X127392957Y-108809340D01*
X127414477Y-108725379D01*
X127444110Y-108644240D01*
X127481504Y-108566982D01*
X127525602Y-108494309D01*
X127576402Y-108426576D01*
X127633199Y-108363782D01*
X127695993Y-108306632D01*
X127764079Y-108255832D01*
X127836752Y-108211382D01*
X127913657Y-108173634D01*
X127994796Y-108144001D01*
X128079110Y-108122129D01*
X128166599Y-108108723D01*
X128256910Y-108104137D01*
X128346868Y-108108723D01*
X128434357Y-108122129D01*
X128519024Y-108144001D01*
X128600163Y-108173634D01*
X128677068Y-108211382D01*
X128749741Y-108255832D01*
X128817827Y-108306632D01*
X128880621Y-108363782D01*
X128937418Y-108426576D01*
X128987866Y-108494309D01*
X129032316Y-108566982D01*
X129069710Y-108644240D01*
X129099343Y-108725379D01*
X129120863Y-108809340D01*
X129134268Y-108896476D01*
X129138854Y-108986082D01*
X129134268Y-109076040D01*
X129120863Y-109163529D01*
X129099343Y-109248195D01*
X129069710Y-109329334D01*
X129032316Y-109406240D01*
X128987866Y-109478912D01*
X128937418Y-109546998D01*
X128880621Y-109609793D01*
X128817827Y-109666590D01*
X128749741Y-109717037D01*
X128677068Y-109761487D01*
X128600163Y-109798529D01*
X128519024Y-109828515D01*
X128434357Y-109850034D01*
X128346868Y-109863440D01*
X128256910Y-109868026D01*
G37*
G36*
X128256205Y-123022756D02*
G01*
X127384491Y-123013584D01*
X127471980Y-123093312D01*
X127567230Y-123164220D01*
X127668830Y-123226309D01*
X127776780Y-123278520D01*
X127889669Y-123319795D01*
X128007849Y-123350487D01*
X128130263Y-123368831D01*
X128256205Y-123375534D01*
X128382147Y-123368831D01*
X128504561Y-123350487D01*
X128622741Y-123319795D01*
X128735983Y-123278520D01*
X128843933Y-123226309D01*
X128945533Y-123164220D01*
X129040783Y-123093312D01*
X129128272Y-123013584D01*
X129207647Y-122926095D01*
X129278908Y-122830845D01*
X129340644Y-122729245D01*
X129392855Y-122620942D01*
X129434483Y-122508053D01*
X129464822Y-122389520D01*
X129483519Y-122267106D01*
X129489869Y-122141164D01*
X129483519Y-122015575D01*
X129464822Y-121892809D01*
X129434483Y-121774628D01*
X129392855Y-121661387D01*
X129340644Y-121553437D01*
X129278908Y-121451837D01*
X129207647Y-121356587D01*
X129128272Y-121268745D01*
X129040783Y-121189370D01*
X128945533Y-121118109D01*
X128843933Y-121056373D01*
X128735983Y-121004162D01*
X128622741Y-120962534D01*
X128504561Y-120932195D01*
X128382147Y-120913498D01*
X128256205Y-120907148D01*
X128130263Y-120913498D01*
X128007849Y-120932195D01*
X127889669Y-120962534D01*
X127776780Y-121004162D01*
X127668830Y-121056373D01*
X127567230Y-121118109D01*
X127471980Y-121189370D01*
X127384491Y-121268745D01*
X127304763Y-121356587D01*
X127233855Y-121451837D01*
X127172119Y-121553437D01*
X127119908Y-121661387D01*
X127078633Y-121774628D01*
X127047941Y-121892809D01*
X127029244Y-122015575D01*
X127022894Y-122141164D01*
X127029244Y-122267106D01*
X127047941Y-122389520D01*
X127078633Y-122508053D01*
X127119908Y-122620942D01*
X127172119Y-122729245D01*
X127233855Y-122830845D01*
X127304763Y-122926095D01*
X127384491Y-123013584D01*
X128256205Y-123022756D01*
X128177183Y-123019228D01*
X128100630Y-123008998D01*
X128025841Y-122992064D01*
X127953522Y-122969134D01*
X127884377Y-122940206D01*
X127818055Y-122905634D01*
X127755261Y-122865770D01*
X127696347Y-122820967D01*
X127640961Y-122771225D01*
X127590161Y-122717250D01*
X127544299Y-122659395D01*
X127503024Y-122597306D01*
X127467041Y-122531689D01*
X127436702Y-122463250D01*
X127412008Y-122391989D01*
X127393663Y-122317553D01*
X129119099Y-121964775D01*
X129011502Y-121964775D01*
X128903552Y-121964775D01*
X128795602Y-121964775D01*
X128688005Y-121964775D01*
X128580055Y-121964775D01*
X128472105Y-121964775D01*
X128364155Y-121964775D01*
X128256205Y-121964775D01*
X128148608Y-121964775D01*
X128040658Y-121964775D01*
X127932708Y-121964775D01*
X127824758Y-121964775D01*
X127717161Y-121964775D01*
X127609211Y-121964775D01*
X127501261Y-121964775D01*
X127393663Y-121964775D01*
X127412008Y-121890692D01*
X127436702Y-121819078D01*
X127467041Y-121750639D01*
X127503024Y-121685023D01*
X127544299Y-121623287D01*
X127590161Y-121565078D01*
X127640961Y-121511456D01*
X127696347Y-121461714D01*
X127755261Y-121416559D01*
X127818055Y-121377048D01*
X127884377Y-121342475D01*
X127953522Y-121313548D01*
X128025841Y-121290617D01*
X128100630Y-121273684D01*
X128177183Y-121263453D01*
X128256205Y-121259925D01*
X128335227Y-121263453D01*
X128412133Y-121273684D01*
X128486922Y-121290617D01*
X128558888Y-121313548D01*
X128628386Y-121342475D01*
X128694708Y-121377048D01*
X128757502Y-121416559D01*
X128816769Y-121461714D01*
X128871449Y-121511456D01*
X128922602Y-121565078D01*
X128968816Y-121623287D01*
X129009738Y-121685023D01*
X129045722Y-121750639D01*
X129076061Y-121819078D01*
X129101108Y-121890692D01*
X129119099Y-121964775D01*
X127393663Y-122317553D01*
X127501261Y-122317553D01*
X127609211Y-122317553D01*
X127717161Y-122317553D01*
X127824758Y-122317553D01*
X127932708Y-122317553D01*
X128040658Y-122317553D01*
X128148608Y-122317553D01*
X128256205Y-122317553D01*
X128364155Y-122317553D01*
X128472105Y-122317553D01*
X128580055Y-122317553D01*
X128688005Y-122317553D01*
X128795602Y-122317553D01*
X128903552Y-122317553D01*
X129011502Y-122317553D01*
X129119099Y-122317553D01*
X129101108Y-122391989D01*
X129076061Y-122463250D01*
X129045722Y-122531689D01*
X129009738Y-122597306D01*
X128968816Y-122659395D01*
X128922602Y-122717250D01*
X128871449Y-122771225D01*
X128816769Y-122820967D01*
X128757502Y-122865770D01*
X128694708Y-122905634D01*
X128628386Y-122940206D01*
X128558888Y-122969134D01*
X128486922Y-122992064D01*
X128412133Y-123008998D01*
X128335227Y-123019228D01*
X128256205Y-123022756D01*
G37*
G36*
X141896040Y-145199530D02*
G01*
X141985293Y-145201647D01*
X142069254Y-145207644D01*
X142148276Y-145218580D01*
X142221654Y-145233397D01*
X142289740Y-145252447D01*
X142352534Y-145276083D01*
X142409684Y-145303952D01*
X142461543Y-145336055D01*
X142507051Y-145372744D01*
X142547268Y-145413666D01*
X142581134Y-145459174D01*
X142609004Y-145509269D01*
X142631229Y-145563244D01*
X142647104Y-145622158D01*
X142656629Y-145685658D01*
X142659804Y-145753744D01*
X142658040Y-145805602D01*
X142652396Y-145853580D01*
X142643223Y-145898383D01*
X142630876Y-145940363D01*
X142615354Y-145979169D01*
X142597009Y-146014799D01*
X142575843Y-146047255D01*
X142552207Y-146077594D01*
X142526101Y-146105111D01*
X142497879Y-146130511D01*
X142467893Y-146153441D01*
X142435790Y-146174255D01*
X142402629Y-146192599D01*
X142367351Y-146209533D01*
X142331015Y-146224702D01*
X142293973Y-146238108D01*
X142289387Y-146224702D01*
X142285154Y-146211297D01*
X142280568Y-146197891D01*
X142275982Y-146184838D01*
X142271396Y-146171433D01*
X142267162Y-146158027D01*
X142262576Y-146144622D01*
X142257990Y-146131569D01*
X142253757Y-146118163D01*
X142248818Y-146104405D01*
X142244232Y-146090999D01*
X142239998Y-146077947D01*
X142235412Y-146064541D01*
X142230826Y-146051136D01*
X142226593Y-146037730D01*
X142222007Y-146024677D01*
X142247054Y-146015858D01*
X142271043Y-146006686D01*
X142294679Y-145997161D01*
X142316551Y-145986577D01*
X142338071Y-145974936D01*
X142357826Y-145962588D01*
X142376171Y-145949183D01*
X142393104Y-145934013D01*
X142408626Y-145917433D01*
X142422384Y-145899441D01*
X142434379Y-145880038D01*
X142444609Y-145858519D01*
X142452371Y-145835236D01*
X142458368Y-145809483D01*
X142461896Y-145781613D01*
X142462954Y-145751627D01*
X142461190Y-145713880D01*
X142455193Y-145678602D01*
X142445668Y-145646147D01*
X142432262Y-145616513D01*
X142415329Y-145588997D01*
X142394515Y-145564302D01*
X142370879Y-145542430D01*
X142343715Y-145523027D01*
X142313376Y-145505741D01*
X142279862Y-145490924D01*
X142243173Y-145478577D01*
X142204015Y-145468699D01*
X142162034Y-145460938D01*
X142117584Y-145455647D01*
X142070312Y-145452472D01*
X142020923Y-145451413D01*
X142005401Y-145451413D01*
X141989879Y-145451413D01*
X141974004Y-145451413D01*
X141958482Y-145451413D01*
X141942959Y-145451413D01*
X141927437Y-145451413D01*
X141911562Y-145451413D01*
X141896040Y-145451413D01*
X141880518Y-145451413D01*
X141864996Y-145451413D01*
X141849121Y-145451413D01*
X141833598Y-145451413D01*
X141818076Y-145451413D01*
X141802554Y-145451413D01*
X141786679Y-145451413D01*
X141771157Y-145451413D01*
X141721768Y-145452472D01*
X141674496Y-145455647D01*
X141630046Y-145460938D01*
X141588065Y-145468699D01*
X141548907Y-145478577D01*
X141512218Y-145490924D01*
X141478704Y-145505741D01*
X141448365Y-145523027D01*
X141421201Y-145542430D01*
X141397565Y-145564302D01*
X141377104Y-145588997D01*
X141359818Y-145616513D01*
X141346412Y-145646147D01*
X141336887Y-145678602D01*
X141330890Y-145713880D01*
X141329126Y-145751627D01*
X141330184Y-145781613D01*
X141333712Y-145809483D01*
X141339709Y-145835236D01*
X141347471Y-145858519D01*
X141357701Y-145880038D01*
X141369696Y-145899441D01*
X141383454Y-145917433D01*
X141398976Y-145934013D01*
X141415909Y-145949183D01*
X141434254Y-145962588D01*
X141454362Y-145974936D01*
X141475529Y-145986577D01*
X141497754Y-145997161D01*
X141521037Y-146006686D01*
X141545026Y-146015858D01*
X141570073Y-146024677D01*
X141565487Y-146037730D01*
X141561254Y-146051136D01*
X141556668Y-146064541D01*
X141552082Y-146077947D01*
X141547848Y-146090999D01*
X141543262Y-146104405D01*
X141538676Y-146118163D01*
X141534443Y-146131569D01*
X141529857Y-146144622D01*
X141525271Y-146158027D01*
X141521037Y-146171433D01*
X141516451Y-146184838D01*
X141511865Y-146197891D01*
X141507279Y-146211297D01*
X141503046Y-146224702D01*
X141498459Y-146238108D01*
X141461418Y-146224702D01*
X141425082Y-146209533D01*
X141389804Y-146192599D01*
X141356643Y-146174255D01*
X141324540Y-146153441D01*
X141294201Y-146130511D01*
X141265979Y-146105111D01*
X141240226Y-146077594D01*
X141216237Y-146047255D01*
X141195071Y-146014799D01*
X141176726Y-145979169D01*
X141161204Y-145940363D01*
X141148857Y-145898383D01*
X141139684Y-145853580D01*
X141134393Y-145805602D01*
X141132276Y-145753744D01*
X141135451Y-145685658D01*
X141144976Y-145622158D01*
X141160851Y-145563244D01*
X141183076Y-145509269D01*
X141211298Y-145459174D01*
X141245165Y-145413666D01*
X141285382Y-145372744D01*
X141330890Y-145336055D01*
X141382396Y-145303952D01*
X141439546Y-145276083D01*
X141502693Y-145252447D01*
X141570426Y-145233397D01*
X141644157Y-145218580D01*
X141723179Y-145207644D01*
X141807140Y-145201647D01*
X141896040Y-145199530D01*
G37*
G36*
X142395220Y-143843560D02*
G01*
X142449548Y-143624485D01*
X142541976Y-143651296D01*
X142634403Y-143678460D01*
X142634403Y-143698568D01*
X142634403Y-143718677D01*
X142634403Y-143739138D01*
X142634403Y-143759599D01*
X142634403Y-143779354D01*
X142634403Y-143799816D01*
X142634403Y-143820277D01*
X142634403Y-143840385D01*
X142634403Y-143860493D01*
X142634403Y-143880602D01*
X142634403Y-143901063D01*
X142634403Y-143921524D01*
X142634403Y-143941279D01*
X142634403Y-143961741D01*
X142634403Y-143982202D01*
X142634403Y-144002310D01*
X142541976Y-144029121D01*
X142449548Y-144056285D01*
X142357473Y-144083449D01*
X142265398Y-144110260D01*
X142172970Y-144137071D01*
X142080542Y-144163882D01*
X141988467Y-144191046D01*
X141896039Y-144218210D01*
X141803612Y-144245021D01*
X141711537Y-144272185D01*
X141619109Y-144298996D01*
X141527034Y-144325807D01*
X141434606Y-144352971D01*
X141342531Y-144380135D01*
X141250103Y-144406946D01*
X141157676Y-144434110D01*
X141157676Y-144418235D01*
X141157676Y-144402360D01*
X141157676Y-144386838D01*
X141157676Y-144370963D01*
X141157676Y-144355088D01*
X141157676Y-144339213D01*
X141157676Y-144323691D01*
X141157676Y-144307816D01*
X141157676Y-144291941D01*
X141157676Y-144276771D01*
X141157676Y-144260896D01*
X141157676Y-144245021D01*
X141157676Y-144229499D01*
X141157676Y-144213624D01*
X141157676Y-144197749D01*
X141157676Y-144182227D01*
X141182370Y-144174818D01*
X141207064Y-144168116D01*
X141231406Y-144161060D01*
X141256101Y-144154004D01*
X141280795Y-144146949D01*
X141305137Y-144140246D01*
X141329831Y-144132838D01*
X141354526Y-144126135D01*
X141378867Y-144119079D01*
X141403562Y-144112024D01*
X141428256Y-144104968D01*
X141452951Y-144098266D01*
X141477292Y-144091210D01*
X141501987Y-144084154D01*
X141526681Y-144077099D01*
X141551023Y-144070396D01*
X141551023Y-144040763D01*
X141551023Y-144011482D01*
X141551023Y-143982202D01*
X141551023Y-143952921D01*
X141551023Y-143923288D01*
X141551023Y-143894007D01*
X141551023Y-143864727D01*
X141551023Y-143835446D01*
X141551023Y-143805813D01*
X141551023Y-143776532D01*
X141551023Y-143747252D01*
X141551023Y-143717971D01*
X141551023Y-143688338D01*
X141551023Y-143659057D01*
X141551023Y-143629777D01*
X141551023Y-143600496D01*
X141526681Y-143593088D01*
X141501987Y-143586385D01*
X141477292Y-143579329D01*
X141452951Y-143571921D01*
X141428256Y-143565218D01*
X141403562Y-143558163D01*
X141378867Y-143551107D01*
X141354526Y-143544052D01*
X141329831Y-143537349D01*
X141305137Y-143529941D01*
X141280795Y-143523238D01*
X141256101Y-143516182D01*
X141231406Y-143509479D01*
X141207064Y-143502071D01*
X141182370Y-143495368D01*
X141157676Y-143488313D01*
X141157676Y-143473143D01*
X141157676Y-143457974D01*
X141157676Y-143442804D01*
X141157676Y-143427988D01*
X141157676Y-143412818D01*
X141157676Y-143397649D01*
X141157676Y-143382479D01*
X141157676Y-143367663D01*
X141157676Y-143352493D01*
X141157676Y-143337324D01*
X141157676Y-143322154D01*
X141157676Y-143307338D01*
X141157676Y-143292521D01*
X141157676Y-143277352D01*
X141157676Y-143262182D01*
X141157676Y-143247366D01*
X141250103Y-143274177D01*
X141342531Y-143300988D01*
X141434606Y-143327799D01*
X141527034Y-143354963D01*
X141619109Y-143381774D01*
X141711537Y-143408938D01*
X141803612Y-143435749D01*
X141896039Y-143462913D01*
X141988467Y-143489724D01*
X142080542Y-143516535D01*
X142172970Y-143543346D01*
X142265398Y-143570863D01*
X142357473Y-143597674D01*
X142449548Y-143624485D01*
X142395220Y-143843560D01*
X142395220Y-143842502D01*
X142395220Y-143841091D01*
X142395220Y-143840032D01*
X142395220Y-143838974D01*
X142395220Y-143837916D01*
X142395220Y-143836857D01*
X142395220Y-143836152D01*
X142395220Y-143835093D01*
X142395220Y-143834035D01*
X142395220Y-143832977D01*
X142395220Y-143831918D01*
X142395220Y-143830860D01*
X142395220Y-143829802D01*
X142395220Y-143828743D01*
X142395220Y-143827685D01*
X142395220Y-143826627D01*
X142355003Y-143815338D01*
X142314434Y-143804049D01*
X142273864Y-143792407D01*
X142233295Y-143781118D01*
X142193078Y-143769829D01*
X142152509Y-143758541D01*
X142111939Y-143747252D01*
X142071723Y-143735610D01*
X142031153Y-143724321D01*
X141990937Y-143713032D01*
X141950014Y-143701743D01*
X141909798Y-143690102D01*
X141869228Y-143678813D01*
X141829012Y-143667524D01*
X141788442Y-143656235D01*
X141747873Y-143644946D01*
X141747873Y-143668582D01*
X141747873Y-143692218D01*
X141747873Y-143716207D01*
X141747873Y-143739843D01*
X141747873Y-143763479D01*
X141747873Y-143787468D01*
X141747873Y-143811104D01*
X141747873Y-143835446D01*
X141747873Y-143859082D01*
X141747873Y-143882718D01*
X141747873Y-143906707D01*
X141747873Y-143930343D01*
X141747873Y-143953979D01*
X141747873Y-143977968D01*
X141747873Y-144001604D01*
X141747873Y-144025946D01*
X141788442Y-144014304D01*
X141829012Y-144002663D01*
X141869228Y-143991374D01*
X141909798Y-143980085D01*
X141950014Y-143968443D01*
X141990937Y-143957154D01*
X142031153Y-143945866D01*
X142071723Y-143934577D01*
X142111939Y-143923288D01*
X142152509Y-143911646D01*
X142193078Y-143900357D01*
X142233295Y-143889068D01*
X142273864Y-143877779D01*
X142314434Y-143866138D01*
X142355003Y-143854849D01*
X142395220Y-143843560D01*
G37*
G36*
X141157746Y-141825420D02*
G01*
X141225832Y-141801078D01*
X141294271Y-141776384D01*
X141362357Y-141752042D01*
X141430443Y-141727701D01*
X141498882Y-141703006D01*
X141566968Y-141678664D01*
X141635407Y-141654323D01*
X141703846Y-141629628D01*
X141771932Y-141605287D01*
X141840371Y-141580945D01*
X141908457Y-141556251D01*
X141976543Y-141531909D01*
X142044982Y-141507567D01*
X142113068Y-141482873D01*
X142181154Y-141458531D01*
X142249593Y-141434189D01*
X142249593Y-141449006D01*
X142249593Y-141463823D01*
X142249593Y-141478992D01*
X142249593Y-141493809D01*
X142249593Y-141508626D01*
X142249593Y-141523795D01*
X142249593Y-141538612D01*
X142249593Y-141553428D01*
X142249593Y-141568245D01*
X142249593Y-141583062D01*
X142249593Y-141598231D01*
X142249593Y-141613048D01*
X142249593Y-141627864D01*
X142249593Y-141643034D01*
X142249593Y-141657851D01*
X142249593Y-141673020D01*
X142220665Y-141682545D01*
X142192090Y-141691717D01*
X142163163Y-141700889D01*
X142134235Y-141710767D01*
X142105660Y-141719939D01*
X142076379Y-141729464D01*
X142047452Y-141738637D01*
X142018877Y-141748162D01*
X141989949Y-141757687D01*
X141961021Y-141766859D01*
X141932446Y-141776031D01*
X141903518Y-141785909D01*
X141874590Y-141795081D01*
X141845663Y-141804253D01*
X141817088Y-141813778D01*
X141788160Y-141823303D01*
X141760996Y-141832123D01*
X141733479Y-141840942D01*
X141706315Y-141849762D01*
X141678799Y-141858581D01*
X141651282Y-141867401D01*
X141623765Y-141876573D01*
X141596602Y-141885039D01*
X141569438Y-141893859D01*
X141541921Y-141903031D01*
X141514757Y-141911498D01*
X141487240Y-141920670D01*
X141459724Y-141929489D01*
X141432207Y-141938309D01*
X141405043Y-141947128D01*
X141377879Y-141955948D01*
X141350363Y-141965120D01*
X141350363Y-141965473D01*
X141350363Y-141966178D01*
X141350363Y-141967237D01*
X141350363Y-141967942D01*
X141350363Y-141968648D01*
X141350363Y-141969353D01*
X141350363Y-141970412D01*
X141350363Y-141971117D01*
X141350363Y-141971823D01*
X141350363Y-141972881D01*
X141350363Y-141973587D01*
X141350363Y-141974292D01*
X141350363Y-141975351D01*
X141350363Y-141976056D01*
X141350363Y-141976762D01*
X141350363Y-141977820D01*
X141377879Y-141986287D01*
X141405043Y-141995106D01*
X141432207Y-142004278D01*
X141459724Y-142012745D01*
X141487240Y-142021917D01*
X141514757Y-142030737D01*
X141541921Y-142039203D01*
X141569438Y-142048376D01*
X141596602Y-142057195D01*
X141623765Y-142066014D01*
X141651282Y-142074834D01*
X141678799Y-142083653D01*
X141706315Y-142092826D01*
X141733479Y-142101292D01*
X141760996Y-142110464D01*
X141788160Y-142119284D01*
X141817088Y-142128456D01*
X141845663Y-142137981D01*
X141874590Y-142147153D01*
X141903518Y-142156678D01*
X141932446Y-142166203D01*
X141961021Y-142175376D01*
X141989949Y-142184901D01*
X142018877Y-142194426D01*
X142047452Y-142203598D01*
X142076379Y-142213123D01*
X142105660Y-142222295D01*
X142134235Y-142231820D01*
X142163163Y-142241345D01*
X142192090Y-142250517D01*
X142220665Y-142259689D01*
X142249593Y-142269567D01*
X142249593Y-142283678D01*
X142249593Y-142298142D01*
X142249593Y-142312606D01*
X142249593Y-142327070D01*
X142249593Y-142341534D01*
X142249593Y-142355998D01*
X142249593Y-142370462D01*
X142249593Y-142384926D01*
X142249593Y-142399037D01*
X142249593Y-142413501D01*
X142249593Y-142427964D01*
X142249593Y-142442428D01*
X142249593Y-142456892D01*
X142249593Y-142471356D01*
X142249593Y-142485820D01*
X142249593Y-142500284D01*
X142181154Y-142475942D01*
X142113068Y-142451248D01*
X142044982Y-142426906D01*
X141976543Y-142402564D01*
X141908457Y-142377870D01*
X141840371Y-142353528D01*
X141771932Y-142329187D01*
X141703846Y-142304492D01*
X141635407Y-142280151D01*
X141566968Y-142255809D01*
X141498882Y-142231114D01*
X141430443Y-142206773D01*
X141362357Y-142182431D01*
X141294271Y-142157737D01*
X141225832Y-142133395D01*
X141157746Y-142109053D01*
X141157746Y-142091062D01*
X141157746Y-142073423D01*
X141157746Y-142055431D01*
X141157746Y-142038145D01*
X141157746Y-142020153D01*
X141157746Y-142002514D01*
X141157746Y-141984876D01*
X141157746Y-141966884D01*
X141157746Y-141949598D01*
X141157746Y-141931606D01*
X141157746Y-141913967D01*
X141157746Y-141895976D01*
X141157746Y-141878337D01*
X141157746Y-141860698D01*
X141157746Y-141843059D01*
X141157746Y-141825420D01*
G37*
G36*
X141157746Y-140613420D02*
G01*
X141157746Y-140549567D01*
X141157746Y-140486067D01*
X141157746Y-140422214D01*
X141157746Y-140358362D01*
X141157746Y-140294862D01*
X141157746Y-140231009D01*
X141157746Y-140167156D01*
X141157746Y-140103656D01*
X141157746Y-140039803D01*
X141157746Y-139975951D01*
X141157746Y-139912451D01*
X141157746Y-139848598D01*
X141157746Y-139784745D01*
X141157746Y-139721245D01*
X141157746Y-139657392D01*
X141157746Y-139593539D01*
X141171857Y-139593539D01*
X141185968Y-139593539D01*
X141200079Y-139593539D01*
X141214190Y-139593539D01*
X141228302Y-139593539D01*
X141242413Y-139593539D01*
X141256877Y-139593539D01*
X141270988Y-139593539D01*
X141285099Y-139593539D01*
X141299210Y-139593539D01*
X141313321Y-139593539D01*
X141327432Y-139593539D01*
X141341543Y-139593539D01*
X141356007Y-139593539D01*
X141370118Y-139593539D01*
X141384229Y-139593539D01*
X141410335Y-139623526D01*
X141436793Y-139653864D01*
X141462899Y-139683851D01*
X141489357Y-139714189D01*
X141515815Y-139744176D01*
X141541921Y-139774514D01*
X141568379Y-139804501D01*
X141594485Y-139834839D01*
X141620590Y-139864826D01*
X141647402Y-139895164D01*
X141673507Y-139925151D01*
X141699965Y-139955489D01*
X141726071Y-139985476D01*
X141752529Y-140015814D01*
X141778988Y-140045801D01*
X141805093Y-140076139D01*
X141829788Y-140103303D01*
X141854482Y-140129409D01*
X141878824Y-140153751D01*
X141902813Y-140176681D01*
X141926802Y-140197848D01*
X141950438Y-140217603D01*
X141974074Y-140235595D01*
X141997710Y-140251823D01*
X142021346Y-140266287D01*
X142044982Y-140278987D01*
X142068618Y-140289570D01*
X142092607Y-140298389D01*
X142116596Y-140305798D01*
X142140938Y-140311089D01*
X142165279Y-140313912D01*
X142190327Y-140314970D01*
X142191738Y-140314970D01*
X142193149Y-140314970D01*
X142194560Y-140314970D01*
X142195971Y-140314970D01*
X142197382Y-140314970D01*
X142198793Y-140314970D01*
X142200204Y-140314970D01*
X142201968Y-140314970D01*
X142203379Y-140314970D01*
X142204790Y-140314970D01*
X142206202Y-140314970D01*
X142207613Y-140314970D01*
X142209024Y-140314970D01*
X142210435Y-140314970D01*
X142211846Y-140314970D01*
X142213257Y-140314970D01*
X142241479Y-140313912D01*
X142267938Y-140311089D01*
X142292985Y-140305798D01*
X142315915Y-140298389D01*
X142337788Y-140289570D01*
X142357190Y-140278634D01*
X142375535Y-140265581D01*
X142391763Y-140250764D01*
X142406227Y-140233831D01*
X142418927Y-140215487D01*
X142429510Y-140195026D01*
X142438682Y-140172801D01*
X142445385Y-140149164D01*
X142450324Y-140123412D01*
X142453499Y-140096248D01*
X142454557Y-140067320D01*
X142453499Y-140037687D01*
X142449971Y-140009817D01*
X142444327Y-139984064D01*
X142437271Y-139959370D01*
X142428099Y-139937145D01*
X142416457Y-139915978D01*
X142403404Y-139896576D01*
X142388940Y-139878584D01*
X142372713Y-139862003D01*
X142355074Y-139846834D01*
X142336024Y-139833076D01*
X142315210Y-139820376D01*
X142293690Y-139809087D01*
X142270760Y-139798503D01*
X142246771Y-139789684D01*
X142222077Y-139781923D01*
X142226663Y-139768517D01*
X142231602Y-139755464D01*
X142236893Y-139742764D01*
X142241479Y-139729712D01*
X142246418Y-139717012D01*
X142251357Y-139703959D01*
X142255943Y-139691259D01*
X142261235Y-139678206D01*
X142266174Y-139665153D01*
X142270760Y-139652101D01*
X142275699Y-139639048D01*
X142280638Y-139626348D01*
X142285577Y-139613295D01*
X142290515Y-139600595D01*
X142295454Y-139587542D01*
X142300040Y-139574842D01*
X142334965Y-139586837D01*
X142369185Y-139601301D01*
X142402346Y-139617881D01*
X142434802Y-139636931D01*
X142466199Y-139658451D01*
X142495832Y-139682439D01*
X142523702Y-139709251D01*
X142549807Y-139738884D01*
X142573796Y-139771339D01*
X142594963Y-139806617D01*
X142614013Y-139844717D01*
X142629888Y-139885992D01*
X142642588Y-139930442D01*
X142651760Y-139978420D01*
X142657757Y-140029573D01*
X142659874Y-140084253D01*
X142657757Y-140139992D01*
X142651407Y-140192909D01*
X142641529Y-140242298D01*
X142627418Y-140288512D01*
X142609779Y-140331551D01*
X142588965Y-140371062D01*
X142564624Y-140407045D01*
X142537460Y-140439501D01*
X142507121Y-140468076D01*
X142473960Y-140493123D01*
X142438329Y-140514995D01*
X142399877Y-140532634D01*
X142359660Y-140546392D01*
X142316974Y-140556270D01*
X142272524Y-140562267D01*
X142225957Y-140564384D01*
X142182918Y-140562620D01*
X142141290Y-140557681D01*
X142101427Y-140548862D01*
X142062268Y-140537573D01*
X142024874Y-140523109D01*
X141988538Y-140505823D01*
X141953260Y-140486067D01*
X141918688Y-140463137D01*
X141885174Y-140438442D01*
X141852013Y-140411278D01*
X141819204Y-140381645D01*
X141786749Y-140350248D01*
X141754646Y-140316734D01*
X141723249Y-140282162D01*
X141691146Y-140245120D01*
X141659043Y-140207373D01*
X141640346Y-140184795D01*
X141621296Y-140162570D01*
X141602952Y-140139992D01*
X141583902Y-140117767D01*
X141565204Y-140095189D01*
X141546507Y-140072964D01*
X141527810Y-140050387D01*
X141508760Y-140028514D01*
X141490063Y-140005937D01*
X141471365Y-139983712D01*
X141452668Y-139961134D01*
X141433618Y-139938909D01*
X141414921Y-139916331D01*
X141396224Y-139894106D01*
X141377527Y-139871528D01*
X141358477Y-139849656D01*
X141358477Y-139897281D01*
X141358477Y-139944906D01*
X141358477Y-139992531D01*
X141358477Y-140040509D01*
X141358477Y-140088134D01*
X141358477Y-140135759D01*
X141358477Y-140183737D01*
X141358477Y-140231362D01*
X141358477Y-140279339D01*
X141358477Y-140326964D01*
X141358477Y-140374589D01*
X141358477Y-140422214D01*
X141358477Y-140470192D01*
X141358477Y-140517817D01*
X141358477Y-140565442D01*
X141358477Y-140613420D01*
X141346129Y-140613420D01*
X141333429Y-140613420D01*
X141321082Y-140613420D01*
X141308382Y-140613420D01*
X141296035Y-140613420D01*
X141282982Y-140613420D01*
X141270635Y-140613420D01*
X141258288Y-140613420D01*
X141245588Y-140613420D01*
X141233240Y-140613420D01*
X141220540Y-140613420D01*
X141208193Y-140613420D01*
X141195140Y-140613420D01*
X141182793Y-140613420D01*
X141170446Y-140613420D01*
X141157746Y-140613420D01*
G37*
G36*
X141157746Y-137774335D02*
G01*
X141170093Y-137774335D01*
X141182088Y-137774335D01*
X141194435Y-137774335D01*
X141207135Y-137774335D01*
X141219482Y-137774335D01*
X141231477Y-137774335D01*
X141243824Y-137774335D01*
X141256171Y-137774335D01*
X141268165Y-137774335D01*
X141280865Y-137774335D01*
X141293213Y-137774335D01*
X141305207Y-137774335D01*
X141317554Y-137774335D01*
X141329902Y-137774335D01*
X141341896Y-137774335D01*
X141354596Y-137774335D01*
X141354596Y-137800088D01*
X141354596Y-137825841D01*
X141354596Y-137851946D01*
X141354596Y-137878052D01*
X141354596Y-137903804D01*
X141354596Y-137929557D01*
X141354596Y-137955663D01*
X141354596Y-137981768D01*
X141354596Y-138007521D01*
X141354596Y-138033274D01*
X141354596Y-138059379D01*
X141354596Y-138085485D01*
X141354596Y-138111238D01*
X141354596Y-138136991D01*
X141354596Y-138163096D01*
X141354596Y-138189202D01*
X141423740Y-138189202D01*
X141492885Y-138189202D01*
X141562029Y-138189202D01*
X141631174Y-138189202D01*
X141700318Y-138189202D01*
X141769463Y-138189202D01*
X141838607Y-138189202D01*
X141907752Y-138189202D01*
X141976896Y-138189202D01*
X142046393Y-138189202D01*
X142115185Y-138189202D01*
X142184329Y-138189202D01*
X142253474Y-138189202D01*
X142322971Y-138189202D01*
X142391763Y-138189202D01*
X142460907Y-138189202D01*
X142460907Y-138188143D01*
X142460907Y-138186732D01*
X142460907Y-138185674D01*
X142460907Y-138184616D01*
X142460907Y-138183557D01*
X142460907Y-138182499D01*
X142460907Y-138181441D01*
X142460907Y-138180382D01*
X142460907Y-138179324D01*
X142460907Y-138178618D01*
X142460907Y-138177560D01*
X142460907Y-138176502D01*
X142460907Y-138175443D01*
X142460907Y-138174385D01*
X142460907Y-138173327D01*
X142460907Y-138172268D01*
X142438329Y-138150396D01*
X142415046Y-138129229D01*
X142392468Y-138107710D01*
X142369538Y-138086543D01*
X142346607Y-138065024D01*
X142323677Y-138043504D01*
X142300746Y-138021985D01*
X142278168Y-138000818D01*
X142254885Y-137979299D01*
X142232307Y-137958132D01*
X142209024Y-137936613D01*
X142186446Y-137914741D01*
X142163515Y-137893574D01*
X142140585Y-137872054D01*
X142118007Y-137850888D01*
X142094724Y-137829368D01*
X142103190Y-137820196D01*
X142111304Y-137811024D01*
X142119771Y-137801852D01*
X142127532Y-137793032D01*
X142135646Y-137783507D01*
X142144113Y-137774688D01*
X142152227Y-137765516D01*
X142160693Y-137756343D01*
X142168454Y-137747171D01*
X142176921Y-137737999D01*
X142185035Y-137728827D01*
X142193502Y-137720007D01*
X142201615Y-137710482D01*
X142209377Y-137701663D01*
X142217843Y-137692491D01*
X142225957Y-137683318D01*
X142251710Y-137706954D01*
X142277110Y-137730238D01*
X142302510Y-137753874D01*
X142327910Y-137777510D01*
X142353663Y-137800793D01*
X142379063Y-137824429D01*
X142404815Y-137848066D01*
X142430215Y-137871349D01*
X142455968Y-137894985D01*
X142481368Y-137918621D01*
X142506768Y-137942257D01*
X142532168Y-137965541D01*
X142557921Y-137989177D01*
X142583321Y-138012813D01*
X142608721Y-138036096D01*
X142634474Y-138060085D01*
X142634474Y-138082663D01*
X142634474Y-138105241D01*
X142634474Y-138128524D01*
X142634474Y-138151102D01*
X142634474Y-138174385D01*
X142634474Y-138196963D01*
X142634474Y-138220246D01*
X142634474Y-138242824D01*
X142634474Y-138266107D01*
X142634474Y-138288685D01*
X142634474Y-138311263D01*
X142634474Y-138334546D01*
X142634474Y-138357124D01*
X142634474Y-138380407D01*
X142634474Y-138402985D01*
X142634474Y-138426268D01*
X142554393Y-138426268D01*
X142474313Y-138426268D01*
X142394585Y-138426268D01*
X142314152Y-138426268D01*
X142234424Y-138426268D01*
X142154343Y-138426268D01*
X142074615Y-138426268D01*
X141994535Y-138426268D01*
X141914454Y-138426268D01*
X141834374Y-138426268D01*
X141754293Y-138426268D01*
X141674565Y-138426268D01*
X141594485Y-138426268D01*
X141514404Y-138426268D01*
X141434324Y-138426268D01*
X141354596Y-138426268D01*
X141354596Y-138448141D01*
X141354596Y-138470718D01*
X141354596Y-138492943D01*
X141354596Y-138515521D01*
X141354596Y-138537746D01*
X141354596Y-138559971D01*
X141354596Y-138582196D01*
X141354596Y-138604774D01*
X141354596Y-138626999D01*
X141354596Y-138649224D01*
X141354596Y-138671802D01*
X141354596Y-138693674D01*
X141354596Y-138716252D01*
X141354596Y-138738477D01*
X141354596Y-138761054D01*
X141354596Y-138783279D01*
X141341896Y-138783279D01*
X141329902Y-138783279D01*
X141317554Y-138783279D01*
X141305207Y-138783279D01*
X141293213Y-138783279D01*
X141280865Y-138783279D01*
X141268165Y-138783279D01*
X141256171Y-138783279D01*
X141243824Y-138783279D01*
X141231477Y-138783279D01*
X141219482Y-138783279D01*
X141207135Y-138783279D01*
X141194435Y-138783279D01*
X141182088Y-138783279D01*
X141170093Y-138783279D01*
X141157746Y-138783279D01*
X141157746Y-138720485D01*
X141157746Y-138656985D01*
X141157746Y-138593838D01*
X141157746Y-138531043D01*
X141157746Y-138467896D01*
X141157746Y-138404749D01*
X141157746Y-138341602D01*
X141157746Y-138278807D01*
X141157746Y-138215660D01*
X141157746Y-138152513D01*
X141157746Y-138089718D01*
X141157746Y-138026571D01*
X141157746Y-137963424D01*
X141157746Y-137900277D01*
X141157746Y-137837482D01*
X141157746Y-137774335D01*
G37*
M02*
